<svg version="1.1" viewBox="0.0 0.0 960.0 540.0" fill="none" stroke="none" stroke-linecap="square" stroke-miterlimit="10" xmlns:xlink="http://www.w3.org/1999/xlink" xmlns="http://www.w3.org/2000/svg"><clipPath id="p.0"><path d="m0 0l960.0 0l0 540.0l-960.0 0l0 -540.0z" clip-rule="nonzero"/></clipPath><g clip-path="url(#p.0)"><path fill="#1b212c" d="m0 0l960.0 0l0 540.0l-960.0 0z" fill-rule="evenodd"/><path fill="#ffffff" fill-opacity="0.0303" d="m960.0 0.053017586l0 0l0 172.56693l-172.56696 -172.56693z" fill-rule="evenodd"/><path fill="#ffffff" fill-opacity="0.0303" d="m270.53595 539.096l-270.53543 -269.51443l0 -269.5144l541.0709 539.0289z" fill-rule="evenodd"/><path fill="#ffffff" fill-opacity="0.0303" d="m246.62866 538.00287l-246.62866 -245.72238l0 -172.35767l419.62204 418.08005z" fill-rule="evenodd"/><path fill="#0145ac" d="m120.897224 240.63107l-120.74016 -120.28981l0 -120.2898l241.48032 240.5796z" fill-rule="evenodd"/><path fill="#82c7a5" d="m310.01797 182.05634l-120.74017 -120.289795l-120.74015 0l241.48032 240.57959z" fill-rule="evenodd"/><path fill="#000000" fill-opacity="0.0" d="m371.35434 165.71129l556.78735 0l0 165.76378l-556.78735 0z" fill-rule="evenodd"/><path fill="#ffffff" d="m386.1356 223.35129l0 -35.453125l13.265625 0q4.515625 0 7.75 1.4375q3.25 1.4375 4.984375 4.15625q1.75 2.703125 1.75 6.5625q0 3.75 -1.75 6.453125q-1.734375 2.703125 -4.984375 4.1875q-3.234375 1.46875 -7.75 1.46875l-11.1875 0l1.65625 -1.78125l0 12.96875l-3.734375 0zm3.734375 -12.671875l-1.65625 -1.8125l11.09375 0q5.3125 0 8.0625 -2.296875q2.765625 -2.3125 2.765625 -6.515625q0 -4.265625 -2.765625 -6.59375q-2.75 -2.328125 -8.0625 -2.328125l-11.09375 0l1.65625 -1.765625l0 21.3125zm30.705902 12.671875l0 -26.59375l3.4375 0l0 7.25l-0.34375 -1.265625q1.109375 -3.046875 3.734375 -4.640625q2.640625 -1.59375 6.546875 -1.59375l0 3.484375q-0.203125 0 -0.40625 -0.015625q-0.203125 -0.03125 -0.40625 -0.03125q-4.203125 0 -6.59375 2.5625q-2.375 2.5625 -2.375 7.265625l0 13.578125l-3.59375 0zm30.49826 0.25q-3.859375 0 -6.921875 -1.734375q-3.0625 -1.75 -4.84375 -4.8125q-1.765625 -3.078125 -1.765625 -7.03125q0 -4.0 1.765625 -7.03125q1.78125 -3.046875 4.8125 -4.765625q3.046875 -1.71875 6.953125 -1.71875q3.953125 0 7.015625 1.71875q3.0625 1.71875 4.8125 4.765625q1.75 3.03125 1.75 7.03125q0 3.953125 -1.75 7.03125q-1.75 3.0625 -4.84375 4.8125q-3.09375 1.734375 -6.984375 1.734375zm0 -3.1875q2.890625 0 5.109375 -1.28125q2.234375 -1.296875 3.515625 -3.65625q1.296875 -2.359375 1.296875 -5.453125q0 -3.140625 -1.296875 -5.46875q-1.28125 -2.328125 -3.515625 -3.609375q-2.21875 -1.296875 -5.0625 -1.296875q-2.84375 0 -5.078125 1.296875q-2.21875 1.28125 -3.53125 3.609375q-1.3125 2.328125 -1.3125 5.46875q0 3.09375 1.3125 5.453125q1.3125 2.359375 3.53125 3.65625q2.234375 1.28125 5.03125 1.28125zm32.261505 13.015625q-3.640625 0 -6.984375 -1.0625q-3.34375 -1.0625 -5.421875 -3.03125l1.828125 -2.75q1.875 1.671875 4.625 2.65625q2.765625 1.0 5.859375 1.0q5.0625 0 7.4375 -2.359375q2.390625 -2.359375 2.390625 -7.3125l0 -6.640625l0.5 -4.5625l-0.359375 -4.5625l0 -8.046875l3.453125 0l0 23.359375q0 6.875 -3.375 10.09375q-3.359375 3.21875 -9.953125 3.21875zm-0.65625 -11.09375q-3.796875 0 -6.84375 -1.640625q-3.03125 -1.65625 -4.78125 -4.59375q-1.75 -2.9375 -1.75 -6.734375q0 -3.796875 1.75 -6.703125q1.75 -2.921875 4.78125 -4.53125q3.046875 -1.625 6.84375 -1.625q3.546875 0 6.375 1.46875q2.84375 1.46875 4.515625 4.359375q1.671875 2.875 1.671875 7.03125q0 4.15625 -1.671875 7.046875q-1.671875 2.890625 -4.515625 4.40625q-2.828125 1.515625 -6.375 1.515625zm0.359375 -3.1875q2.9375 0 5.21875 -1.234375q2.28125 -1.25 3.59375 -3.453125q1.3125 -2.203125 1.3125 -5.09375q0 -2.890625 -1.3125 -5.0625q-1.3125 -2.171875 -3.59375 -3.40625q-2.28125 -1.25 -5.21875 -1.25q-2.890625 0 -5.203125 1.25q-2.296875 1.234375 -3.59375 3.40625q-1.28125 2.171875 -1.28125 5.0625q0 2.890625 1.28125 5.09375q1.296875 2.203125 3.59375 3.453125q2.3125 1.234375 5.203125 1.234375zm34.949585 4.453125q-4.15625 0 -7.296875 -1.734375q-3.140625 -1.75 -4.921875 -4.8125q-1.765625 -3.078125 -1.765625 -7.03125q0 -3.953125 1.6875 -6.984375q1.703125 -3.046875 4.671875 -4.78125q2.96875 -1.75 6.65625 -1.75q3.75 0 6.65625 1.703125q2.921875 1.6875 4.59375 4.75q1.671875 3.0625 1.671875 7.0625q0 0.265625 -0.03125 0.546875q-0.015625 0.265625 -0.015625 0.578125l-23.15625 0l0 -2.6875l21.234375 0l-1.421875 1.0625q0 -2.890625 -1.25 -5.140625q-1.234375 -2.25 -3.359375 -3.515625q-2.125 -1.28125 -4.921875 -1.28125q-2.734375 0 -4.921875 1.28125q-2.171875 1.265625 -3.390625 3.546875q-1.203125 2.265625 -1.203125 5.203125l0 0.5625q0 3.046875 1.34375 5.359375q1.34375 2.296875 3.75 3.59375q2.40625 1.28125 5.484375 1.28125q2.4375 0 4.53125 -0.859375q2.109375 -0.859375 3.625 -2.640625l2.03125 2.328125q-1.765625 2.140625 -4.4375 3.25q-2.65625 1.109375 -5.84375 1.109375zm27.70581 0q-3.75 0 -5.78125 -2.015625q-2.015625 -2.03125 -2.015625 -5.734375l0 -24.96875l3.59375 0l0 24.765625q0 2.328125 1.1875 3.59375q1.1875 1.265625 3.421875 1.265625q2.375 0 3.953125 -1.359375l1.265625 2.578125q-1.0625 0.96875 -2.5625 1.421875q-1.484375 0.453125 -3.0625 0.453125zm-12.5625 -23.859375l0 -2.984375l16.46875 0l0 2.984375l-16.46875 0zm32.419617 23.859375q-3.75 0 -5.78125 -2.015625q-2.015625 -2.03125 -2.015625 -5.734375l0 -24.96875l3.59375 0l0 24.765625q0 2.328125 1.1875 3.59375q1.1875 1.265625 3.421875 1.265625q2.375 0 3.953125 -1.359375l1.265625 2.578125q-1.0625 0.96875 -2.5625 1.421875q-1.484375 0.453125 -3.0625 0.453125zm-12.5625 -23.859375l0 -2.984375l16.46875 0l0 2.984375l-16.46875 0zm34.60382 23.859375q-3.859375 0 -6.921875 -1.734375q-3.0625 -1.75 -4.84375 -4.8125q-1.765625 -3.078125 -1.765625 -7.03125q0 -4.0 1.765625 -7.03125q1.78125 -3.046875 4.8125 -4.765625q3.046875 -1.71875 6.953125 -1.71875q3.953125 0 7.015625 1.71875q3.0625 1.71875 4.8125 4.765625q1.75 3.03125 1.75 7.03125q0 3.953125 -1.75 7.03125q-1.75 3.0625 -4.84375 4.8125q-3.09375 1.734375 -6.984375 1.734375zm0 -3.1875q2.890625 0 5.109375 -1.28125q2.234375 -1.296875 3.515625 -3.65625q1.296875 -2.359375 1.296875 -5.453125q0 -3.140625 -1.296875 -5.46875q-1.28125 -2.328125 -3.515625 -3.609375q-2.21875 -1.296875 -5.0625 -1.296875q-2.84375 0 -5.078125 1.296875q-2.21875 1.28125 -3.53125 3.609375q-1.3125 2.328125 -1.3125 5.46875q0 3.09375 1.3125 5.453125q1.3125 2.359375 3.53125 3.65625q2.234375 1.28125 5.03125 1.28125zm29.267822 2.9375l16.21875 -35.453125l3.703125 0l16.203125 35.453125l-3.953125 0l-14.890625 -33.28125l1.515625 0l-14.890625 33.28125l-3.90625 0zm6.390625 -9.46875l1.109375 -3.046875l20.625 0l1.109375 3.046875l-22.84375 0zm45.645386 9.71875q-3.953125 0 -7.078125 -1.734375q-3.109375 -1.75 -4.890625 -4.8125q-1.765625 -3.078125 -1.765625 -7.03125q0 -4.0 1.765625 -7.03125q1.78125 -3.046875 4.890625 -4.765625q3.125 -1.71875 7.078125 -1.71875q3.390625 0 6.125 1.3125q2.734375 1.3125 4.3125 3.953125l-2.6875 1.828125q-1.375 -2.03125 -3.40625 -2.984375q-2.015625 -0.96875 -4.40625 -0.96875q-2.828125 0 -5.109375 1.296875q-2.28125 1.28125 -3.59375 3.609375q-1.3125 2.328125 -1.3125 5.46875q0 3.140625 1.3125 5.484375q1.3125 2.328125 3.59375 3.625q2.28125 1.28125 5.109375 1.28125q2.390625 0 4.40625 -0.953125q2.03125 -0.96875 3.40625 -2.953125l2.6875 1.828125q-1.578125 2.578125 -4.3125 3.921875q-2.734375 1.34375 -6.125 1.34375zm34.14453 -0.25l0 -5.875l-0.15625 -0.96875l0 -9.828125q0 -3.390625 -1.90625 -5.203125q-1.890625 -1.828125 -5.640625 -1.828125q-2.59375 0 -4.921875 0.859375q-2.328125 0.859375 -3.953125 2.28125l-1.609375 -2.6875q2.015625 -1.71875 4.84375 -2.65625q2.84375 -0.9375 5.984375 -0.9375q5.171875 0 7.984375 2.5625q2.8125 2.546875 2.8125 7.765625l0 16.515625l-3.4375 0zm-9.171875 0.25q-3.0 0 -5.203125 -0.984375q-2.203125 -0.984375 -3.375 -2.734375q-1.15625 -1.75 -1.15625 -4.03125q0 -2.078125 0.984375 -3.765625q1.0 -1.703125 3.25 -2.734375q2.25 -1.046875 6.046875 -1.046875l9.171875 0l0 2.6875l-9.0625 0q-3.84375 0 -5.34375 1.375q-1.5 1.359375 -1.5 3.390625q0 2.28125 1.765625 3.65625q1.78125 1.359375 4.96875 1.359375q3.046875 0 5.25 -1.390625q2.203125 -1.40625 3.21875 -4.03125l0.8125 2.484375q-1.015625 2.625 -3.53125 4.203125q-2.5 1.5625 -6.296875 1.5625zm32.980957 0q-3.8125 0 -6.828125 -1.71875q-3.0 -1.71875 -4.734375 -4.78125q-1.71875 -3.078125 -1.71875 -7.078125q0 -4.046875 1.71875 -7.078125q1.734375 -3.046875 4.734375 -4.734375q3.015625 -1.703125 6.828125 -1.703125q3.484375 0 6.25 1.578125q2.765625 1.5625 4.40625 4.578125q1.640625 3.015625 1.640625 7.359375q0 4.3125 -1.625 7.359375q-1.609375 3.03125 -4.375 4.625q-2.765625 1.59375 -6.296875 1.59375zm0.25 -3.1875q2.828125 0 5.078125 -1.28125q2.265625 -1.296875 3.546875 -3.65625q1.296875 -2.359375 1.296875 -5.453125q0 -3.140625 -1.296875 -5.46875q-1.28125 -2.328125 -3.546875 -3.609375q-2.25 -1.296875 -5.078125 -1.296875q-2.796875 0 -5.03125 1.296875q-2.21875 1.28125 -3.53125 3.609375q-1.3125 2.328125 -1.3125 5.46875q0 3.09375 1.3125 5.453125q1.3125 2.359375 3.53125 3.65625q2.234375 1.28125 5.03125 1.28125zm10.03125 2.9375l0 -8.0l0.34375 -5.375l-0.5 -5.375l0 -18.84375l3.59375 0l0 37.59375l-3.4375 0zm24.766846 0.25q-4.15625 0 -7.296875 -1.734375q-3.140625 -1.75 -4.921875 -4.8125q-1.765625 -3.078125 -1.765625 -7.03125q0 -3.953125 1.6875 -6.984375q1.703125 -3.046875 4.671875 -4.78125q2.96875 -1.75 6.65625 -1.75q3.75 0 6.65625 1.703125q2.921875 1.6875 4.59375 4.75q1.671875 3.0625 1.671875 7.0625q0 0.265625 -0.03125 0.546875q-0.015625 0.265625 -0.015625 0.578125l-23.15625 0l0 -2.6875l21.234375 0l-1.421875 1.0625q0 -2.890625 -1.25 -5.140625q-1.234375 -2.25 -3.359375 -3.515625q-2.125 -1.28125 -4.921875 -1.28125q-2.734375 0 -4.921875 1.28125q-2.171875 1.265625 -3.390625 3.546875q-1.203125 2.265625 -1.203125 5.203125l0 0.5625q0 3.046875 1.34375 5.359375q1.34375 2.296875 3.75 3.59375q2.40625 1.28125 5.484375 1.28125q2.4375 0 4.53125 -0.859375q2.109375 -0.859375 3.625 -2.640625l2.03125 2.328125q-1.765625 2.140625 -4.4375 3.25q-2.65625 1.109375 -5.84375 1.109375zm52.533936 -27.09375q3.234375 0 5.640625 1.25q2.40625 1.234375 3.75 3.765625q1.34375 2.53125 1.34375 6.375l0 15.453125l-3.59375 0l0 -15.09375q0 -4.203125 -2.0 -6.359375q-2.0 -2.15625 -5.65625 -2.15625q-2.734375 0 -4.734375 1.140625q-2.0 1.140625 -3.09375 3.296875q-1.078125 2.15625 -1.078125 5.1875l0 13.984375l-3.59375 0l0 -15.09375q0 -4.203125 -2.03125 -6.359375q-2.03125 -2.15625 -5.671875 -2.15625q-2.6875 0 -4.71875 1.140625q-2.015625 1.140625 -3.109375 3.296875q-1.09375 2.15625 -1.09375 5.1875l0 13.984375l-3.59375 0l0 -26.59375l3.4375 0l0 7.1875l-0.546875 -1.265625q1.21875 -2.890625 3.921875 -4.53125q2.703125 -1.640625 6.40625 -1.640625q3.90625 0 6.640625 1.953125q2.734375 1.9375 3.546875 5.84375l-1.421875 -0.5625q1.171875 -3.234375 4.125 -5.234375q2.96875 -2.0 7.125 -2.0zm20.208435 36.921875q-1.875 0 -3.578125 -0.609375q-1.6875 -0.609375 -2.90625 -1.8125l1.671875 -2.6875q1.015625 0.953125 2.203125 1.484375q1.1875 0.53125 2.65625 0.53125q1.78125 0 3.0625 -0.984375q1.296875 -0.984375 2.46875 -3.46875l1.71875 -3.90625l0.40625 -0.546875l10.9375 -24.671875l3.546875 0l-13.328125 29.78125q-1.109375 2.59375 -2.453125 4.109375q-1.34375 1.515625 -2.921875 2.140625q-1.5625 0.640625 -3.484375 0.640625zm7.09375 -9.3125l-12.265625 -27.359375l3.75 0l10.84375 24.421875l-2.328125 2.9375z" fill-rule="nonzero"/><path fill="#ffffff" d="m878.9619 223.35129l0 -33.9375l1.625 1.71875l-9.984375 0l0 -3.234375l12.015625 0l0 35.453125l-3.65625 0zm23.302551 0.296875q-3.796875 0 -7.25 -1.234375q-3.4375 -1.234375 -5.46875 -3.3125l1.78125 -2.890625q1.671875 1.765625 4.578125 2.9375q2.921875 1.15625 6.3125 1.15625q4.5 0 6.859375 -2.0q2.359375 -2.0 2.359375 -5.234375q0 -2.28125 -1.09375 -3.921875q-1.09375 -1.65625 -3.671875 -2.5625q-2.578125 -0.90625 -7.09375 -0.90625l-7.546875 0l1.828125 -17.78125l19.40625 0l0 3.234375l-17.9375 0l1.875 -1.765625l-1.578125 14.890625l-1.875 -1.828125l6.640625 0q5.375 0 8.609375 1.328125q3.25 1.3125 4.6875 3.671875q1.453125 2.34375 1.453125 5.484375q0 2.984375 -1.421875 5.453125q-1.421875 2.453125 -4.265625 3.875q-2.828125 1.40625 -7.1875 1.40625z" fill-rule="nonzero"/><path fill="#000000" fill-opacity="0.0" d="m533.74805 412.0656l366.07874 0l0 53.13385l-366.07874 0z" fill-rule="evenodd"/><path fill="#ffffff" d="m546.24805 434.37762l-1.6875 0l0 -12.421875l1.6875 0l0 12.421875zm3.0853882 0l0 -8.78125l0.890625 0q0.25 0 0.34375 0.09375q0.09375 0.09375 0.125 0.328125l0.109375 1.375q0.453125 -0.921875 1.109375 -1.4375q0.65625 -0.515625 1.546875 -0.515625q0.375 0 0.65625 0.09375q0.296875 0.078125 0.5625 0.21875l-0.203125 1.15625q-0.0625 0.21875 -0.265625 0.21875q-0.125 0 -0.375 -0.078125q-0.25 -0.09375 -0.703125 -0.09375q-0.8125 0 -1.359375 0.46875q-0.53125 0.46875 -0.890625 1.359375l0 5.59375l-1.546875 0zm8.702026 -8.78125l0 8.78125l-1.546875 0l0 -8.78125l1.546875 0zm0.34375 -2.75q0 0.21875 -0.09375 0.421875q-0.09375 0.1875 -0.25 0.34375q-0.140625 0.15625 -0.34375 0.25q-0.203125 0.078125 -0.421875 0.078125q-0.21875 0 -0.421875 -0.078125q-0.1875 -0.09375 -0.34375 -0.25q-0.15625 -0.15625 -0.25 -0.34375q-0.078125 -0.203125 -0.078125 -0.421875q0 -0.21875 0.078125 -0.421875q0.09375 -0.21875 0.25 -0.359375q0.15625 -0.15625 0.34375 -0.234375q0.203125 -0.09375 0.421875 -0.09375q0.21875 0 0.421875 0.09375q0.203125 0.078125 0.34375 0.234375q0.15625 0.140625 0.25 0.359375q0.09375 0.203125 0.09375 0.421875zm7.404785 4.203125q-0.109375 0.1875 -0.328125 0.1875q-0.125 0 -0.296875 -0.09375q-0.15625 -0.09375 -0.40625 -0.203125q-0.234375 -0.125 -0.5625 -0.21875q-0.328125 -0.109375 -0.78125 -0.109375q-0.390625 0 -0.703125 0.109375q-0.3125 0.09375 -0.53125 0.265625q-0.21875 0.171875 -0.34375 0.40625q-0.109375 0.21875 -0.109375 0.5q0 0.328125 0.1875 0.5625q0.203125 0.21875 0.515625 0.390625q0.328125 0.15625 0.734375 0.28125q0.40625 0.125 0.828125 0.28125q0.4375 0.140625 0.84375 0.3125q0.40625 0.171875 0.71875 0.4375q0.328125 0.25 0.515625 0.625q0.203125 0.375 0.203125 0.90625q0 0.609375 -0.21875 1.125q-0.21875 0.515625 -0.640625 0.890625q-0.421875 0.375 -1.046875 0.59375q-0.609375 0.21875 -1.40625 0.21875q-0.921875 0 -1.671875 -0.296875q-0.734375 -0.296875 -1.265625 -0.765625l0.375 -0.59375q0.0625 -0.109375 0.15625 -0.171875q0.09375 -0.0625 0.25 -0.0625q0.15625 0 0.328125 0.125q0.171875 0.125 0.421875 0.265625q0.25 0.140625 0.59375 0.265625q0.359375 0.125 0.890625 0.125q0.453125 0 0.78125 -0.109375q0.34375 -0.125 0.5625 -0.328125q0.234375 -0.203125 0.34375 -0.453125q0.109375 -0.265625 0.109375 -0.5625q0 -0.359375 -0.203125 -0.59375q-0.1875 -0.234375 -0.515625 -0.40625q-0.3125 -0.171875 -0.734375 -0.296875q-0.40625 -0.125 -0.84375 -0.265625q-0.421875 -0.140625 -0.84375 -0.3125q-0.40625 -0.1875 -0.734375 -0.453125q-0.3125 -0.265625 -0.515625 -0.65625q-0.1875 -0.40625 -0.1875 -0.96875q0 -0.5 0.203125 -0.953125q0.21875 -0.46875 0.609375 -0.8125q0.40625 -0.359375 0.984375 -0.5625q0.578125 -0.21875 1.328125 -0.21875q0.859375 0 1.546875 0.28125q0.703125 0.265625 1.203125 0.75l-0.34375 0.5625zm14.833557 4.765625q0.125 0 0.25 0.109375l0.65625 0.71875q-0.765625 0.890625 -1.859375 1.390625q-1.078125 0.484375 -2.609375 0.484375q-1.34375 0 -2.4375 -0.453125q-1.09375 -0.46875 -1.875 -1.296875q-0.765625 -0.84375 -1.1875 -2.015625q-0.421875 -1.171875 -0.421875 -2.578125q0 -1.40625 0.453125 -2.578125q0.453125 -1.171875 1.265625 -2.0q0.828125 -0.84375 1.96875 -1.296875q1.15625 -0.46875 2.546875 -0.46875q1.375 0 2.359375 0.421875q1.0 0.421875 1.765625 1.140625l-0.546875 0.78125q-0.0625 0.078125 -0.140625 0.140625q-0.078125 0.0625 -0.21875 0.0625q-0.109375 0 -0.234375 -0.078125q-0.125 -0.09375 -0.3125 -0.21875q-0.171875 -0.125 -0.40625 -0.25q-0.234375 -0.140625 -0.5625 -0.265625q-0.3125 -0.125 -0.734375 -0.203125q-0.421875 -0.078125 -0.96875 -0.078125q-1.0 0 -1.828125 0.34375q-0.828125 0.328125 -1.4375 0.96875q-0.59375 0.625 -0.921875 1.546875q-0.328125 0.90625 -0.328125 2.03125q0 1.15625 0.328125 2.078125q0.328125 0.90625 0.90625 1.53125q0.578125 0.625 1.359375 0.953125q0.796875 0.328125 1.703125 0.328125q0.5625 0 1.0 -0.0625q0.4375 -0.0625 0.8125 -0.203125q0.390625 -0.140625 0.703125 -0.34375q0.328125 -0.21875 0.65625 -0.515625q0.15625 -0.125 0.296875 -0.125zm9.322998 2.5625l-0.6875 0q-0.234375 0 -0.375 -0.0625q-0.125 -0.078125 -0.171875 -0.296875l-0.171875 -0.8125q-0.359375 0.3125 -0.6875 0.5625q-0.328125 0.234375 -0.6875 0.40625q-0.359375 0.171875 -0.78125 0.25q-0.40625 0.09375 -0.90625 0.09375q-0.515625 0 -0.96875 -0.140625q-0.4375 -0.140625 -0.765625 -0.421875q-0.328125 -0.296875 -0.53125 -0.734375q-0.1875 -0.4375 -0.1875 -1.03125q0 -0.53125 0.28125 -1.0q0.296875 -0.484375 0.921875 -0.859375q0.640625 -0.375 1.671875 -0.609375q1.03125 -0.234375 2.515625 -0.28125l0 -0.671875q0 -1.03125 -0.4375 -1.546875q-0.4375 -0.53125 -1.28125 -0.53125q-0.5625 0 -0.953125 0.140625q-0.390625 0.140625 -0.671875 0.328125q-0.28125 0.171875 -0.484375 0.3125q-0.203125 0.140625 -0.40625 0.140625q-0.15625 0 -0.28125 -0.078125q-0.109375 -0.078125 -0.171875 -0.203125l-0.28125 -0.484375q0.734375 -0.703125 1.5625 -1.046875q0.84375 -0.359375 1.875 -0.359375q0.734375 0 1.296875 0.25q0.578125 0.234375 0.96875 0.671875q0.390625 0.4375 0.59375 1.0625q0.203125 0.609375 0.203125 1.34375l0 5.609375zm-4.015625 -0.9375q0.40625 0 0.75 -0.078125q0.34375 -0.09375 0.640625 -0.234375q0.296875 -0.15625 0.5625 -0.375q0.28125 -0.21875 0.53125 -0.5l0 -1.828125q-1.0625 0.03125 -1.8125 0.171875q-0.734375 0.140625 -1.203125 0.359375q-0.46875 0.203125 -0.6875 0.5q-0.203125 0.296875 -0.203125 0.65625q0 0.34375 0.109375 0.609375q0.109375 0.25 0.296875 0.40625q0.203125 0.15625 0.453125 0.234375q0.265625 0.078125 0.5625 0.078125zm6.3479614 0.9375l0 -8.78125l0.921875 0q0.328125 0 0.40625 0.328125l0.125 0.953125q0.578125 -0.640625 1.28125 -1.03125q0.703125 -0.390625 1.625 -0.390625q0.71875 0 1.265625 0.25q0.5625 0.234375 0.921875 0.671875q0.375 0.4375 0.5625 1.0625q0.1875 0.609375 0.1875 1.34375l0 5.59375l-1.53125 0l0 -5.59375q0 -0.984375 -0.46875 -1.53125q-0.453125 -0.5625 -1.375 -0.5625q-0.6875 0 -1.28125 0.328125q-0.59375 0.328125 -1.09375 0.890625l0 6.46875l-1.546875 0zm13.1813965 -8.921875q0.96875 0 1.734375 0.328125q0.78125 0.3125 1.3125 0.90625q0.546875 0.59375 0.84375 1.4375q0.296875 0.828125 0.296875 1.859375q0 1.03125 -0.296875 1.875q-0.296875 0.828125 -0.84375 1.421875q-0.53125 0.578125 -1.3125 0.90625q-0.765625 0.3125 -1.734375 0.3125q-0.953125 0 -1.734375 -0.3125q-0.78125 -0.328125 -1.328125 -0.90625q-0.53125 -0.59375 -0.828125 -1.421875q-0.296875 -0.84375 -0.296875 -1.875q0 -1.03125 0.296875 -1.859375q0.296875 -0.84375 0.828125 -1.4375q0.546875 -0.59375 1.328125 -0.90625q0.78125 -0.328125 1.734375 -0.328125zm0 7.84375q1.296875 0 1.9375 -0.875q0.65625 -0.875 0.65625 -2.4375q0 -1.5625 -0.65625 -2.4375q-0.640625 -0.875 -1.9375 -0.875q-0.65625 0 -1.140625 0.234375q-0.484375 0.21875 -0.8125 0.640625q-0.328125 0.421875 -0.484375 1.046875q-0.15625 0.625 -0.15625 1.390625q0 0.78125 0.15625 1.40625q0.15625 0.609375 0.484375 1.03125q0.328125 0.421875 0.8125 0.65625q0.484375 0.21875 1.140625 0.21875zm7.8063965 -11.6875l0 12.765625l-1.546875 0l0 -12.765625l1.546875 0zm6.186035 3.84375q0.796875 0 1.453125 0.265625q0.671875 0.265625 1.15625 0.765625q0.484375 0.5 0.75 1.234375q0.28125 0.734375 0.28125 1.671875q0 0.359375 -0.078125 0.484375q-0.078125 0.109375 -0.296875 0.109375l-5.828125 0q0.015625 0.84375 0.21875 1.453125q0.203125 0.609375 0.5625 1.03125q0.375 0.40625 0.875 0.609375q0.5 0.203125 1.125 0.203125q0.578125 0 1.0 -0.125q0.421875 -0.140625 0.71875 -0.296875q0.3125 -0.15625 0.515625 -0.28125q0.203125 -0.140625 0.34375 -0.140625q0.203125 0 0.296875 0.140625l0.4375 0.5625q-0.28125 0.34375 -0.6875 0.609375q-0.390625 0.25 -0.859375 0.421875q-0.453125 0.15625 -0.9375 0.234375q-0.484375 0.09375 -0.953125 0.09375q-0.90625 0 -1.6875 -0.3125q-0.765625 -0.3125 -1.328125 -0.90625q-0.546875 -0.59375 -0.859375 -1.46875q-0.3125 -0.875 -0.3125 -2.0q0 -0.921875 0.28125 -1.71875q0.28125 -0.796875 0.8125 -1.375q0.53125 -0.59375 1.28125 -0.921875q0.765625 -0.34375 1.71875 -0.34375zm0.046875 1.140625q-1.125 0 -1.765625 0.65625q-0.640625 0.640625 -0.796875 1.78125l4.765625 0q0 -0.546875 -0.140625 -0.984375q-0.140625 -0.453125 -0.4375 -0.765625q-0.28125 -0.328125 -0.703125 -0.5q-0.40625 -0.1875 -0.921875 -0.1875zm5.111267 6.71875q0 -0.203125 0.078125 -0.375q0.078125 -0.1875 0.203125 -0.3125q0.140625 -0.140625 0.328125 -0.21875q0.1875 -0.078125 0.421875 -0.078125q0.25 0 0.453125 0.09375q0.203125 0.09375 0.328125 0.265625q0.140625 0.171875 0.203125 0.390625q0.078125 0.21875 0.078125 0.484375q0 0.390625 -0.109375 0.8125q-0.109375 0.421875 -0.328125 0.828125q-0.203125 0.40625 -0.515625 0.796875q-0.296875 0.390625 -0.6875 0.71875l-0.265625 -0.25q-0.109375 -0.09375 -0.109375 -0.234375q0 -0.125 0.125 -0.234375q0.078125 -0.09375 0.21875 -0.265625q0.140625 -0.15625 0.265625 -0.375q0.140625 -0.203125 0.25 -0.453125q0.125 -0.25 0.1875 -0.53125l-0.125 0q-0.21875 0 -0.40625 -0.078125q-0.171875 -0.078125 -0.3125 -0.21875q-0.125 -0.140625 -0.203125 -0.328125q-0.078125 -0.203125 -0.078125 -0.4375zm13.252319 -0.15625q0.5 0 0.921875 -0.046875q0.421875 -0.046875 0.78125 -0.140625q0.375 -0.09375 0.703125 -0.234375q0.34375 -0.140625 0.671875 -0.3125l0 -2.734375l-1.921875 0q-0.171875 0 -0.28125 -0.09375q-0.09375 -0.09375 -0.09375 -0.234375l0 -0.953125l3.8125 0l0 4.765625q-0.46875 0.34375 -0.984375 0.59375q-0.5 0.25 -1.078125 0.421875q-0.5625 0.15625 -1.234375 0.234375q-0.65625 0.09375 -1.421875 0.09375q-1.34375 0 -2.484375 -0.453125q-1.125 -0.46875 -1.9375 -1.296875q-0.8125 -0.84375 -1.265625 -2.015625q-0.453125 -1.171875 -0.453125 -2.578125q0 -1.421875 0.4375 -2.59375q0.453125 -1.171875 1.28125 -2.0q0.828125 -0.84375 2.0 -1.296875q1.171875 -0.453125 2.625 -0.453125q0.734375 0 1.359375 0.109375q0.640625 0.09375 1.1875 0.296875q0.546875 0.203125 1.0 0.5q0.46875 0.296875 0.859375 0.65625l-0.46875 0.765625q-0.15625 0.234375 -0.390625 0.234375q-0.140625 0 -0.296875 -0.09375q-0.21875 -0.125 -0.5 -0.296875q-0.265625 -0.171875 -0.65625 -0.328125q-0.375 -0.171875 -0.90625 -0.28125q-0.515625 -0.109375 -1.234375 -0.109375q-1.046875 0 -1.90625 0.34375q-0.84375 0.328125 -1.4375 0.96875q-0.59375 0.640625 -0.921875 1.546875q-0.3125 0.90625 -0.3125 2.03125q0 1.171875 0.328125 2.09375q0.328125 0.921875 0.9375 1.578125q0.609375 0.640625 1.4375 0.984375q0.828125 0.328125 1.84375 0.328125zm13.390808 1.21875l-0.6875 0q-0.234375 0 -0.375 -0.0625q-0.125 -0.078125 -0.171875 -0.296875l-0.171875 -0.8125q-0.359375 0.3125 -0.6875 0.5625q-0.328125 0.234375 -0.6875 0.40625q-0.359375 0.171875 -0.78125 0.25q-0.40625 0.09375 -0.90625 0.09375q-0.515625 0 -0.96875 -0.140625q-0.4375 -0.140625 -0.765625 -0.421875q-0.328125 -0.296875 -0.53125 -0.734375q-0.1875 -0.4375 -0.1875 -1.03125q0 -0.53125 0.28125 -1.0q0.296875 -0.484375 0.921875 -0.859375q0.640625 -0.375 1.671875 -0.609375q1.03125 -0.234375 2.515625 -0.28125l0 -0.671875q0 -1.03125 -0.4375 -1.546875q-0.4375 -0.53125 -1.28125 -0.53125q-0.5625 0 -0.953125 0.140625q-0.390625 0.140625 -0.671875 0.328125q-0.28125 0.171875 -0.484375 0.3125q-0.203125 0.140625 -0.40625 0.140625q-0.15625 0 -0.28125 -0.078125q-0.109375 -0.078125 -0.171875 -0.203125l-0.28125 -0.484375q0.734375 -0.703125 1.5625 -1.046875q0.84375 -0.359375 1.875 -0.359375q0.734375 0 1.296875 0.25q0.578125 0.234375 0.96875 0.671875q0.390625 0.4375 0.59375 1.0625q0.203125 0.609375 0.203125 1.34375l0 5.609375zm-4.015625 -0.9375q0.40625 0 0.75 -0.078125q0.34375 -0.09375 0.640625 -0.234375q0.296875 -0.15625 0.5625 -0.375q0.28125 -0.21875 0.53125 -0.5l0 -1.828125q-1.0625 0.03125 -1.8125 0.171875q-0.734375 0.140625 -1.203125 0.359375q-0.46875 0.203125 -0.6875 0.5q-0.203125 0.296875 -0.203125 0.65625q0 0.34375 0.109375 0.609375q0.109375 0.25 0.296875 0.40625q0.203125 0.15625 0.453125 0.234375q0.265625 0.078125 0.5625 0.078125zm6.3948364 0.9375l0 -12.765625l1.5625 0l0 5.25q0.53125 -0.625 1.234375 -1.015625q0.71875 -0.390625 1.625 -0.390625q0.765625 0 1.375 0.296875q0.625 0.28125 1.046875 0.859375q0.4375 0.5625 0.671875 1.40625q0.234375 0.828125 0.234375 1.921875q0 0.96875 -0.265625 1.8125q-0.25 0.828125 -0.75 1.4375q-0.484375 0.609375 -1.1875 0.96875q-0.703125 0.34375 -1.59375 0.34375q-0.84375 0 -1.4375 -0.328125q-0.59375 -0.328125 -1.03125 -0.921875l-0.078125 0.796875q-0.078125 0.328125 -0.40625 0.328125l-1.0 0zm3.921875 -7.6875q-0.75 0 -1.328125 0.359375q-0.5625 0.34375 -1.03125 0.96875l0 4.25q0.40625 0.5625 0.90625 0.796875q0.515625 0.234375 1.140625 0.234375q1.234375 0 1.890625 -0.875q0.65625 -0.875 0.65625 -2.484375q0 -0.859375 -0.15625 -1.46875q-0.140625 -0.625 -0.4375 -1.015625q-0.28125 -0.40625 -0.703125 -0.578125q-0.40625 -0.1875 -0.9375 -0.1875zm5.7177124 7.6875l0 -8.78125l0.890625 0q0.25 0 0.34375 0.09375q0.09375 0.09375 0.125 0.328125l0.109375 1.375q0.453125 -0.921875 1.109375 -1.4375q0.65625 -0.515625 1.546875 -0.515625q0.375 0 0.65625 0.09375q0.296875 0.078125 0.5625 0.21875l-0.203125 1.15625q-0.0625 0.21875 -0.265625 0.21875q-0.125 0 -0.375 -0.078125q-0.25 -0.09375 -0.703125 -0.09375q-0.8125 0 -1.359375 0.46875q-0.53125 0.46875 -0.890625 1.359375l0 5.59375l-1.546875 0zm8.702026 -8.78125l0 8.78125l-1.546875 0l0 -8.78125l1.546875 0zm0.34375 -2.75q0 0.21875 -0.09375 0.421875q-0.09375 0.1875 -0.25 0.34375q-0.140625 0.15625 -0.34375 0.25q-0.203125 0.078125 -0.421875 0.078125q-0.21875 0 -0.421875 -0.078125q-0.1875 -0.09375 -0.34375 -0.25q-0.15625 -0.15625 -0.25 -0.34375q-0.078125 -0.203125 -0.078125 -0.421875q0 -0.21875 0.078125 -0.421875q0.09375 -0.21875 0.25 -0.359375q0.15625 -0.15625 0.34375 -0.234375q0.203125 -0.09375 0.421875 -0.09375q0.21875 0 0.421875 0.09375q0.203125 0.078125 0.34375 0.234375q0.15625 0.140625 0.25 0.359375q0.09375 0.203125 0.09375 0.421875zm5.842285 2.609375q0.796875 0 1.453125 0.265625q0.671875 0.265625 1.15625 0.765625q0.484375 0.5 0.75 1.234375q0.28125 0.734375 0.28125 1.671875q0 0.359375 -0.078125 0.484375q-0.078125 0.109375 -0.296875 0.109375l-5.828125 0q0.015625 0.84375 0.21875 1.453125q0.203125 0.609375 0.5625 1.03125q0.375 0.40625 0.875 0.609375q0.5 0.203125 1.125 0.203125q0.578125 0 1.0 -0.125q0.421875 -0.140625 0.71875 -0.296875q0.3125 -0.15625 0.515625 -0.28125q0.203125 -0.140625 0.34375 -0.140625q0.203125 0 0.296875 0.140625l0.4375 0.5625q-0.28125 0.34375 -0.6875 0.609375q-0.390625 0.25 -0.859375 0.421875q-0.453125 0.15625 -0.9375 0.234375q-0.484375 0.09375 -0.953125 0.09375q-0.90625 0 -1.6875 -0.3125q-0.765625 -0.3125 -1.328125 -0.90625q-0.546875 -0.59375 -0.859375 -1.46875q-0.3125 -0.875 -0.3125 -2.0q0 -0.921875 0.28125 -1.71875q0.28125 -0.796875 0.8125 -1.375q0.53125 -0.59375 1.28125 -0.921875q0.765625 -0.34375 1.71875 -0.34375zm0.046875 1.140625q-1.125 0 -1.765625 0.65625q-0.640625 0.640625 -0.796875 1.78125l4.765625 0q0 -0.546875 -0.140625 -0.984375q-0.140625 -0.453125 -0.4375 -0.765625q-0.28125 -0.328125 -0.703125 -0.5q-0.40625 -0.1875 -0.921875 -0.1875zm7.283142 -4.984375l0 12.765625l-1.546875 0l0 -12.765625l1.546875 0zm6.186035 3.84375q0.796875 0 1.453125 0.265625q0.671875 0.265625 1.15625 0.765625q0.484375 0.5 0.75 1.234375q0.28125 0.734375 0.28125 1.671875q0 0.359375 -0.078125 0.484375q-0.078125 0.109375 -0.296875 0.109375l-5.828125 0q0.015625 0.84375 0.21875 1.453125q0.203125 0.609375 0.5625 1.03125q0.375 0.40625 0.875 0.609375q0.5 0.203125 1.125 0.203125q0.578125 0 1.0 -0.125q0.421875 -0.140625 0.71875 -0.296875q0.3125 -0.15625 0.515625 -0.28125q0.203125 -0.140625 0.34375 -0.140625q0.203125 0 0.296875 0.140625l0.4375 0.5625q-0.28125 0.34375 -0.6875 0.609375q-0.390625 0.25 -0.859375 0.421875q-0.453125 0.15625 -0.9375 0.234375q-0.484375 0.09375 -0.953125 0.09375q-0.90625 0 -1.6875 -0.3125q-0.765625 -0.3125 -1.328125 -0.90625q-0.546875 -0.59375 -0.859375 -1.46875q-0.3125 -0.875 -0.3125 -2.0q0 -0.921875 0.28125 -1.71875q0.28125 -0.796875 0.8125 -1.375q0.53125 -0.59375 1.28125 -0.921875q0.765625 -0.34375 1.71875 -0.34375zm0.046875 1.140625q-1.125 0 -1.765625 0.65625q-0.640625 0.640625 -0.796875 1.78125l4.765625 0q0 -0.546875 -0.140625 -0.984375q-0.140625 -0.453125 -0.4375 -0.765625q-0.28125 -0.328125 -0.703125 -0.5q-0.40625 -0.1875 -0.921875 -0.1875zm14.690002 6.5625q0.5 0 0.921875 -0.046875q0.421875 -0.046875 0.78125 -0.140625q0.375 -0.09375 0.703125 -0.234375q0.34375 -0.140625 0.671875 -0.3125l0 -2.734375l-1.921875 0q-0.171875 0 -0.28125 -0.09375q-0.09375 -0.09375 -0.09375 -0.234375l0 -0.953125l3.8125 0l0 4.765625q-0.46875 0.34375 -0.984375 0.59375q-0.5 0.25 -1.078125 0.421875q-0.5625 0.15625 -1.234375 0.234375q-0.65625 0.09375 -1.421875 0.09375q-1.34375 0 -2.484375 -0.453125q-1.125 -0.46875 -1.9375 -1.296875q-0.8125 -0.84375 -1.265625 -2.015625q-0.453125 -1.171875 -0.453125 -2.578125q0 -1.421875 0.4375 -2.59375q0.453125 -1.171875 1.28125 -2.0q0.828125 -0.84375 2.0 -1.296875q1.171875 -0.453125 2.625 -0.453125q0.734375 0 1.359375 0.109375q0.640625 0.09375 1.1875 0.296875q0.546875 0.203125 1.0 0.5q0.46875 0.296875 0.859375 0.65625l-0.46875 0.765625q-0.15625 0.234375 -0.390625 0.234375q-0.140625 0 -0.296875 -0.09375q-0.21875 -0.125 -0.5 -0.296875q-0.265625 -0.171875 -0.65625 -0.328125q-0.375 -0.171875 -0.90625 -0.28125q-0.515625 -0.109375 -1.234375 -0.109375q-1.046875 0 -1.90625 0.34375q-0.84375 0.328125 -1.4375 0.96875q-0.59375 0.640625 -0.921875 1.546875q-0.3125 0.90625 -0.3125 2.03125q0 1.171875 0.328125 2.09375q0.328125 0.921875 0.9375 1.578125q0.609375 0.640625 1.4375 0.984375q0.828125 0.328125 1.84375 0.328125zm13.390869 1.21875l-0.6875 0q-0.234375 0 -0.375 -0.0625q-0.125 -0.078125 -0.171875 -0.296875l-0.171875 -0.8125q-0.359375 0.3125 -0.6875 0.5625q-0.328125 0.234375 -0.6875 0.40625q-0.359375 0.171875 -0.78125 0.25q-0.40625 0.09375 -0.90625 0.09375q-0.515625 0 -0.96875 -0.140625q-0.4375 -0.140625 -0.765625 -0.421875q-0.328125 -0.296875 -0.53125 -0.734375q-0.1875 -0.4375 -0.1875 -1.03125q0 -0.53125 0.28125 -1.0q0.296875 -0.484375 0.921875 -0.859375q0.640625 -0.375 1.671875 -0.609375q1.03125 -0.234375 2.515625 -0.28125l0 -0.671875q0 -1.03125 -0.4375 -1.546875q-0.4375 -0.53125 -1.28125 -0.53125q-0.5625 0 -0.953125 0.140625q-0.390625 0.140625 -0.671875 0.328125q-0.28125 0.171875 -0.484375 0.3125q-0.203125 0.140625 -0.40625 0.140625q-0.15625 0 -0.28125 -0.078125q-0.109375 -0.078125 -0.171875 -0.203125l-0.28125 -0.484375q0.734375 -0.703125 1.5625 -1.046875q0.84375 -0.359375 1.875 -0.359375q0.734375 0 1.296875 0.25q0.578125 0.234375 0.96875 0.671875q0.390625 0.4375 0.59375 1.0625q0.203125 0.609375 0.203125 1.34375l0 5.609375zm-4.015625 -0.9375q0.40625 0 0.75 -0.078125q0.34375 -0.09375 0.640625 -0.234375q0.296875 -0.15625 0.5625 -0.375q0.28125 -0.21875 0.53125 -0.5l0 -1.828125q-1.0625 0.03125 -1.8125 0.171875q-0.734375 0.140625 -1.203125 0.359375q-0.46875 0.203125 -0.6875 0.5q-0.203125 0.296875 -0.203125 0.65625q0 0.34375 0.109375 0.609375q0.109375 0.25 0.296875 0.40625q0.203125 0.15625 0.453125 0.234375q0.265625 0.078125 0.5625 0.078125zm6.3479004 0.9375l0 -8.78125l0.890625 0q0.25 0 0.34375 0.09375q0.09375 0.09375 0.125 0.328125l0.109375 1.375q0.453125 -0.921875 1.109375 -1.4375q0.65625 -0.515625 1.546875 -0.515625q0.375 0 0.65625 0.09375q0.296875 0.078125 0.5625 0.21875l-0.203125 1.15625q-0.0625 0.21875 -0.265625 0.21875q-0.125 0 -0.375 -0.078125q-0.25 -0.09375 -0.703125 -0.09375q-0.8125 0 -1.359375 0.46875q-0.53125 0.46875 -0.890625 1.359375l0 5.59375l-1.546875 0zm13.107117 0l-0.6875 0q-0.234375 0 -0.375 -0.0625q-0.125 -0.078125 -0.171875 -0.296875l-0.171875 -0.8125q-0.359375 0.3125 -0.6875 0.5625q-0.328125 0.234375 -0.6875 0.40625q-0.359375 0.171875 -0.78125 0.25q-0.40625 0.09375 -0.90625 0.09375q-0.515625 0 -0.96875 -0.140625q-0.4375 -0.140625 -0.765625 -0.421875q-0.328125 -0.296875 -0.53125 -0.734375q-0.1875 -0.4375 -0.1875 -1.03125q0 -0.53125 0.28125 -1.0q0.296875 -0.484375 0.921875 -0.859375q0.640625 -0.375 1.671875 -0.609375q1.03125 -0.234375 2.515625 -0.28125l0 -0.671875q0 -1.03125 -0.4375 -1.546875q-0.4375 -0.53125 -1.28125 -0.53125q-0.5625 0 -0.953125 0.140625q-0.390625 0.140625 -0.671875 0.328125q-0.28125 0.171875 -0.484375 0.3125q-0.203125 0.140625 -0.40625 0.140625q-0.15625 0 -0.28125 -0.078125q-0.109375 -0.078125 -0.171875 -0.203125l-0.28125 -0.484375q0.734375 -0.703125 1.5625 -1.046875q0.84375 -0.359375 1.875 -0.359375q0.734375 0 1.296875 0.25q0.578125 0.234375 0.96875 0.671875q0.390625 0.4375 0.59375 1.0625q0.203125 0.609375 0.203125 1.34375l0 5.609375zm-4.015625 -0.9375q0.40625 0 0.75 -0.078125q0.34375 -0.09375 0.640625 -0.234375q0.296875 -0.15625 0.5625 -0.375q0.28125 -0.21875 0.53125 -0.5l0 -1.828125q-1.0625 0.03125 -1.8125 0.171875q-0.734375 0.140625 -1.203125 0.359375q-0.46875 0.203125 -0.6875 0.5q-0.203125 0.296875 -0.203125 0.65625q0 0.34375 0.109375 0.609375q0.109375 0.25 0.296875 0.40625q0.203125 0.15625 0.453125 0.234375q0.265625 0.078125 0.5625 0.078125zm4.9611816 -7.84375l1.265625 0q0.1875 0 0.296875 0.09375q0.125 0.09375 0.171875 0.234375l2.234375 5.640625q0.125 0.3125 0.1875 0.625q0.078125 0.3125 0.125 0.625q0.078125 -0.3125 0.15625 -0.625q0.078125 -0.3125 0.203125 -0.625l2.25 -5.640625q0.046875 -0.140625 0.15625 -0.234375q0.125 -0.09375 0.296875 -0.09375l1.203125 0l-3.578125 8.78125l-1.390625 0l-3.578125 -8.78125zm13.224915 -0.140625q0.796875 0 1.453125 0.265625q0.671875 0.265625 1.15625 0.765625q0.484375 0.5 0.75 1.234375q0.28125 0.734375 0.28125 1.671875q0 0.359375 -0.078125 0.484375q-0.078125 0.109375 -0.296875 0.109375l-5.828125 0q0.015625 0.84375 0.21875 1.453125q0.203125 0.609375 0.5625 1.03125q0.375 0.40625 0.875 0.609375q0.5 0.203125 1.125 0.203125q0.578125 0 1.0 -0.125q0.421875 -0.140625 0.71875 -0.296875q0.3125 -0.15625 0.515625 -0.28125q0.203125 -0.140625 0.34375 -0.140625q0.203125 0 0.296875 0.140625l0.4375 0.5625q-0.28125 0.34375 -0.6875 0.609375q-0.390625 0.25 -0.859375 0.421875q-0.453125 0.15625 -0.9375 0.234375q-0.484375 0.09375 -0.953125 0.09375q-0.90625 0 -1.6875 -0.3125q-0.765625 -0.3125 -1.328125 -0.90625q-0.546875 -0.59375 -0.859375 -1.46875q-0.3125 -0.875 -0.3125 -2.0q0 -0.921875 0.28125 -1.71875q0.28125 -0.796875 0.8125 -1.375q0.53125 -0.59375 1.28125 -0.921875q0.765625 -0.34375 1.71875 -0.34375zm0.046875 1.140625q-1.125 0 -1.765625 0.65625q-0.640625 0.640625 -0.796875 1.78125l4.765625 0q0 -0.546875 -0.140625 -0.984375q-0.140625 -0.453125 -0.4375 -0.765625q-0.28125 -0.328125 -0.703125 -0.5q-0.40625 -0.1875 -0.921875 -0.1875zm7.283142 -4.984375l0 12.765625l-1.546875 0l0 -12.765625l1.546875 0zm4.436035 0l0 12.765625l-1.546875 0l0 -12.765625l1.546875 0zm4.436035 3.984375l0 8.78125l-1.546875 0l0 -8.78125l1.546875 0zm0.34375 -2.75q0 0.21875 -0.09375 0.421875q-0.09375 0.1875 -0.25 0.34375q-0.140625 0.15625 -0.34375 0.25q-0.203125 0.078125 -0.421875 0.078125q-0.21875 0 -0.421875 -0.078125q-0.1875 -0.09375 -0.34375 -0.25q-0.15625 -0.15625 -0.25 -0.34375q-0.078125 -0.203125 -0.078125 -0.421875q0 -0.21875 0.078125 -0.421875q0.09375 -0.21875 0.25 -0.359375q0.15625 -0.15625 0.34375 -0.234375q0.203125 -0.09375 0.421875 -0.09375q0.21875 0 0.421875 0.09375q0.203125 0.078125 0.34375 0.234375q0.15625 0.140625 0.25 0.359375q0.09375 0.203125 0.09375 0.421875zm1.9204102 10.46875q0 -0.203125 0.078125 -0.375q0.078125 -0.1875 0.203125 -0.3125q0.140625 -0.140625 0.328125 -0.21875q0.1875 -0.078125 0.421875 -0.078125q0.25 0 0.453125 0.09375q0.203125 0.09375 0.328125 0.265625q0.140625 0.171875 0.203125 0.390625q0.078125 0.21875 0.078125 0.484375q0 0.390625 -0.109375 0.8125q-0.109375 0.421875 -0.328125 0.828125q-0.203125 0.40625 -0.515625 0.796875q-0.296875 0.390625 -0.6875 0.71875l-0.265625 -0.25q-0.109375 -0.09375 -0.109375 -0.234375q0 -0.125 0.125 -0.234375q0.078125 -0.09375 0.21875 -0.265625q0.140625 -0.15625 0.265625 -0.375q0.140625 -0.203125 0.25 -0.453125q0.125 -0.25 0.1875 -0.53125l-0.125 0q-0.21875 0 -0.40625 -0.078125q-0.171875 -0.078125 -0.3125 -0.21875q-0.125 -0.140625 -0.203125 -0.328125q-0.078125 -0.203125 -0.078125 -0.4375zm13.252319 -0.15625q0.5 0 0.921875 -0.046875q0.421875 -0.046875 0.78125 -0.140625q0.375 -0.09375 0.703125 -0.234375q0.34375 -0.140625 0.671875 -0.3125l0 -2.734375l-1.921875 0q-0.171875 0 -0.28125 -0.09375q-0.09375 -0.09375 -0.09375 -0.234375l0 -0.953125l3.8125 0l0 4.765625q-0.46875 0.34375 -0.984375 0.59375q-0.5 0.25 -1.078125 0.421875q-0.5625 0.15625 -1.234375 0.234375q-0.65625 0.09375 -1.421875 0.09375q-1.34375 0 -2.484375 -0.453125q-1.125 -0.46875 -1.9375 -1.296875q-0.8125 -0.84375 -1.265625 -2.015625q-0.453125 -1.171875 -0.453125 -2.578125q0 -1.421875 0.4375 -2.59375q0.453125 -1.171875 1.28125 -2.0q0.828125 -0.84375 2.0 -1.296875q1.171875 -0.453125 2.625 -0.453125q0.734375 0 1.359375 0.109375q0.640625 0.09375 1.1875 0.296875q0.546875 0.203125 1.0 0.5q0.46875 0.296875 0.859375 0.65625l-0.46875 0.765625q-0.15625 0.234375 -0.390625 0.234375q-0.140625 0 -0.296875 -0.09375q-0.21875 -0.125 -0.5 -0.296875q-0.265625 -0.171875 -0.65625 -0.328125q-0.375 -0.171875 -0.90625 -0.28125q-0.515625 -0.109375 -1.234375 -0.109375q-1.046875 0 -1.90625 0.34375q-0.84375 0.328125 -1.4375 0.96875q-0.59375 0.640625 -0.921875 1.546875q-0.3125 0.90625 -0.3125 2.03125q0 1.171875 0.328125 2.09375q0.328125 0.921875 0.9375 1.578125q0.609375 0.640625 1.4375 0.984375q0.828125 0.328125 1.84375 0.328125zm13.390808 1.21875l-0.6875 0q-0.234375 0 -0.375 -0.0625q-0.125 -0.078125 -0.171875 -0.296875l-0.171875 -0.8125q-0.359375 0.3125 -0.6875 0.5625q-0.328125 0.234375 -0.6875 0.40625q-0.359375 0.171875 -0.78125 0.25q-0.40625 0.09375 -0.90625 0.09375q-0.515625 0 -0.96875 -0.140625q-0.4375 -0.140625 -0.765625 -0.421875q-0.328125 -0.296875 -0.53125 -0.734375q-0.1875 -0.4375 -0.1875 -1.03125q0 -0.53125 0.28125 -1.0q0.296875 -0.484375 0.921875 -0.859375q0.640625 -0.375 1.671875 -0.609375q1.03125 -0.234375 2.515625 -0.28125l0 -0.671875q0 -1.03125 -0.4375 -1.546875q-0.4375 -0.53125 -1.28125 -0.53125q-0.5625 0 -0.953125 0.140625q-0.390625 0.140625 -0.671875 0.328125q-0.28125 0.171875 -0.484375 0.3125q-0.203125 0.140625 -0.40625 0.140625q-0.15625 0 -0.28125 -0.078125q-0.109375 -0.078125 -0.171875 -0.203125l-0.28125 -0.484375q0.734375 -0.703125 1.5625 -1.046875q0.84375 -0.359375 1.875 -0.359375q0.734375 0 1.296875 0.25q0.578125 0.234375 0.96875 0.671875q0.390625 0.4375 0.59375 1.0625q0.203125 0.609375 0.203125 1.34375l0 5.609375zm-4.015625 -0.9375q0.40625 0 0.75 -0.078125q0.34375 -0.09375 0.640625 -0.234375q0.296875 -0.15625 0.5625 -0.375q0.28125 -0.21875 0.53125 -0.5l0 -1.828125q-1.0625 0.03125 -1.8125 0.171875q-0.734375 0.140625 -1.203125 0.359375q-0.46875 0.203125 -0.6875 0.5q-0.203125 0.296875 -0.203125 0.65625q0 0.34375 0.109375 0.609375q0.109375 0.25 0.296875 0.40625q0.203125 0.15625 0.453125 0.234375q0.265625 0.078125 0.5625 0.078125zm6.3948364 0.9375l0 -12.765625l1.5625 0l0 5.25q0.53125 -0.625 1.234375 -1.015625q0.71875 -0.390625 1.625 -0.390625q0.765625 0 1.375 0.296875q0.625 0.28125 1.046875 0.859375q0.4375 0.5625 0.671875 1.40625q0.234375 0.828125 0.234375 1.921875q0 0.96875 -0.265625 1.8125q-0.25 0.828125 -0.75 1.4375q-0.484375 0.609375 -1.1875 0.96875q-0.703125 0.34375 -1.59375 0.34375q-0.84375 0 -1.4375 -0.328125q-0.59375 -0.328125 -1.03125 -0.921875l-0.078125 0.796875q-0.078125 0.328125 -0.40625 0.328125l-1.0 0zm3.921875 -7.6875q-0.75 0 -1.328125 0.359375q-0.5625 0.34375 -1.03125 0.96875l0 4.25q0.40625 0.5625 0.90625 0.796875q0.515625 0.234375 1.140625 0.234375q1.234375 0 1.890625 -0.875q0.65625 -0.875 0.65625 -2.484375q0 -0.859375 -0.15625 -1.46875q-0.140625 -0.625 -0.4375 -1.015625q-0.28125 -0.40625 -0.703125 -0.578125q-0.40625 -0.1875 -0.9375 -0.1875zm5.7177124 7.6875l0 -8.78125l0.890625 0q0.25 0 0.34375 0.09375q0.09375 0.09375 0.125 0.328125l0.109375 1.375q0.453125 -0.921875 1.109375 -1.4375q0.65625 -0.515625 1.546875 -0.515625q0.375 0 0.65625 0.09375q0.296875 0.078125 0.5625 0.21875l-0.203125 1.15625q-0.0625 0.21875 -0.265625 0.21875q-0.125 0 -0.375 -0.078125q-0.25 -0.09375 -0.703125 -0.09375q-0.8125 0 -1.359375 0.46875q-0.53125 0.46875 -0.890625 1.359375l0 5.59375l-1.546875 0zm8.702087 -8.78125l0 8.78125l-1.546875 0l0 -8.78125l1.546875 0zm0.34375 -2.75q0 0.21875 -0.09375 0.421875q-0.09375 0.1875 -0.25 0.34375q-0.140625 0.15625 -0.34375 0.25q-0.203125 0.078125 -0.421875 0.078125q-0.21875 0 -0.421875 -0.078125q-0.1875 -0.09375 -0.34375 -0.25q-0.15625 -0.15625 -0.25 -0.34375q-0.078125 -0.203125 -0.078125 -0.421875q0 -0.21875 0.078125 -0.421875q0.09375 -0.21875 0.25 -0.359375q0.15625 -0.15625 0.34375 -0.234375q0.203125 -0.09375 0.421875 -0.09375q0.21875 0 0.421875 0.09375q0.203125 0.078125 0.34375 0.234375q0.15625 0.140625 0.25 0.359375q0.09375 0.203125 0.09375 0.421875zm5.842285 2.609375q0.796875 0 1.453125 0.265625q0.671875 0.265625 1.15625 0.765625q0.484375 0.5 0.75 1.234375q0.28125 0.734375 0.28125 1.671875q0 0.359375 -0.078125 0.484375q-0.078125 0.109375 -0.296875 0.109375l-5.828125 0q0.015625 0.84375 0.21875 1.453125q0.203125 0.609375 0.5625 1.03125q0.375 0.40625 0.875 0.609375q0.5 0.203125 1.125 0.203125q0.578125 0 1.0 -0.125q0.421875 -0.140625 0.71875 -0.296875q0.3125 -0.15625 0.515625 -0.28125q0.203125 -0.140625 0.34375 -0.140625q0.203125 0 0.296875 0.140625l0.4375 0.5625q-0.28125 0.34375 -0.6875 0.609375q-0.390625 0.25 -0.859375 0.421875q-0.453125 0.15625 -0.9375 0.234375q-0.484375 0.09375 -0.953125 0.09375q-0.90625 0 -1.6875 -0.3125q-0.765625 -0.3125 -1.328125 -0.90625q-0.546875 -0.59375 -0.859375 -1.46875q-0.3125 -0.875 -0.3125 -2.0q0 -0.921875 0.28125 -1.71875q0.28125 -0.796875 0.8125 -1.375q0.53125 -0.59375 1.28125 -0.921875q0.765625 -0.34375 1.71875 -0.34375zm0.046875 1.140625q-1.125 0 -1.765625 0.65625q-0.640625 0.640625 -0.796875 1.78125l4.765625 0q0 -0.546875 -0.140625 -0.984375q-0.140625 -0.453125 -0.4375 -0.765625q-0.28125 -0.328125 -0.703125 -0.5q-0.40625 -0.1875 -0.921875 -0.1875zm7.283142 -4.984375l0 12.765625l-1.546875 0l0 -12.765625l1.546875 0zm6.186035 3.84375q0.796875 0 1.453125 0.265625q0.671875 0.265625 1.15625 0.765625q0.484375 0.5 0.75 1.234375q0.28125 0.734375 0.28125 1.671875q0 0.359375 -0.078125 0.484375q-0.078125 0.109375 -0.296875 0.109375l-5.828125 0q0.015625 0.84375 0.21875 1.453125q0.203125 0.609375 0.5625 1.03125q0.375 0.40625 0.875 0.609375q0.5 0.203125 1.125 0.203125q0.578125 0 1.0 -0.125q0.421875 -0.140625 0.71875 -0.296875q0.3125 -0.15625 0.515625 -0.28125q0.203125 -0.140625 0.34375 -0.140625q0.203125 0 0.296875 0.140625l0.4375 0.5625q-0.28125 0.34375 -0.6875 0.609375q-0.390625 0.25 -0.859375 0.421875q-0.453125 0.15625 -0.9375 0.234375q-0.484375 0.09375 -0.953125 0.09375q-0.90625 0 -1.6875 -0.3125q-0.765625 -0.3125 -1.328125 -0.90625q-0.546875 -0.59375 -0.859375 -1.46875q-0.3125 -0.875 -0.3125 -2.0q0 -0.921875 0.28125 -1.71875q0.28125 -0.796875 0.8125 -1.375q0.53125 -0.59375 1.28125 -0.921875q0.765625 -0.34375 1.71875 -0.34375zm0.046875 1.140625q-1.125 0 -1.765625 0.65625q-0.640625 0.640625 -0.796875 1.78125l4.765625 0q0 -0.546875 -0.140625 -0.984375q-0.140625 -0.453125 -0.4375 -0.765625q-0.28125 -0.328125 -0.703125 -0.5q-0.40625 -0.1875 -0.921875 -0.1875z" fill-rule="nonzero"/><path fill="#ffffff" d="m550.3574 446.53323q0.125 0.203125 0.21875 0.4375q0.09375 0.21875 0.171875 0.453125q0.09375 -0.234375 0.1875 -0.453125q0.09375 -0.21875 0.21875 -0.453125l4.203125 -7.625q0.109375 -0.203125 0.234375 -0.25q0.125 -0.046875 0.34375 -0.046875l1.234375 0l0 12.421875l-1.46875 0l0 -9.125q0 -0.1875 0 -0.390625q0.015625 -0.203125 0.03125 -0.421875l-4.25 7.765625q-0.21875 0.390625 -0.609375 0.390625l-0.234375 0q-0.390625 0 -0.609375 -0.390625l-4.359375 -7.796875q0.03125 0.234375 0.046875 0.453125q0.015625 0.203125 0.015625 0.390625l0 9.125l-1.484375 0l0 -12.421875l1.25 0q0.21875 0 0.34375 0.046875q0.125 0.046875 0.234375 0.25l4.28125 7.640625l0 0zm16.05133 4.484375l-0.6875 0q-0.234375 0 -0.375 -0.0625q-0.125 -0.078125 -0.171875 -0.296875l-0.171875 -0.8125q-0.359375 0.3125 -0.6875 0.5625q-0.328125 0.234375 -0.6875 0.40625q-0.359375 0.171875 -0.78125 0.25q-0.40625 0.09375 -0.90625 0.09375q-0.515625 0 -0.96875 -0.140625q-0.4375 -0.140625 -0.765625 -0.421875q-0.328125 -0.296875 -0.53125 -0.734375q-0.1875 -0.4375 -0.1875 -1.03125q0 -0.53125 0.28125 -1.0q0.296875 -0.484375 0.921875 -0.859375q0.640625 -0.375 1.671875 -0.609375q1.03125 -0.234375 2.515625 -0.28125l0 -0.671875q0 -1.03125 -0.4375 -1.546875q-0.4375 -0.53125 -1.28125 -0.53125q-0.5625 0 -0.953125 0.140625q-0.390625 0.140625 -0.671875 0.328125q-0.28125 0.171875 -0.484375 0.3125q-0.203125 0.140625 -0.40625 0.140625q-0.15625 0 -0.28125 -0.078125q-0.109375 -0.078125 -0.171875 -0.203125l-0.28125 -0.484375q0.734375 -0.703125 1.5625 -1.046875q0.84375 -0.359375 1.875 -0.359375q0.734375 0 1.296875 0.25q0.578125 0.234375 0.96875 0.671875q0.390625 0.4375 0.59375 1.0625q0.203125 0.609375 0.203125 1.34375l0 5.609375zm-4.015625 -0.9375q0.40625 0 0.75 -0.078125q0.34375 -0.09375 0.640625 -0.234375q0.296875 -0.15625 0.5625 -0.375q0.28125 -0.21875 0.53125 -0.5l0 -1.828125q-1.0625 0.03125 -1.8125 0.171875q-0.734375 0.140625 -1.203125 0.359375q-0.46875 0.203125 -0.6875 0.5q-0.203125 0.296875 -0.203125 0.65625q0 0.34375 0.109375 0.609375q0.109375 0.25 0.296875 0.40625q0.203125 0.15625 0.453125 0.234375q0.265625 0.078125 0.5625 0.078125zm6.3479614 0.9375l0 -8.78125l0.890625 0q0.25 0 0.34375 0.09375q0.09375 0.09375 0.125 0.328125l0.109375 1.375q0.453125 -0.921875 1.109375 -1.4375q0.65625 -0.515625 1.546875 -0.515625q0.375 0 0.65625 0.09375q0.296875 0.078125 0.5625 0.21875l-0.203125 1.15625q-0.0625 0.21875 -0.265625 0.21875q-0.125 0 -0.375 -0.078125q-0.25 -0.09375 -0.703125 -0.09375q-0.8125 0 -1.359375 0.46875q-0.53125 0.46875 -0.890625 1.359375l0 5.59375l-1.546875 0zm12.967651 -7.21875q-0.0625 0.09375 -0.140625 0.15625q-0.0625 0.046875 -0.203125 0.046875q-0.125 0 -0.28125 -0.109375q-0.140625 -0.109375 -0.375 -0.234375q-0.234375 -0.140625 -0.578125 -0.25q-0.328125 -0.109375 -0.8125 -0.109375q-0.640625 0 -1.140625 0.234375q-0.484375 0.234375 -0.828125 0.671875q-0.328125 0.421875 -0.5 1.046875q-0.15625 0.609375 -0.15625 1.375q0 0.796875 0.171875 1.421875q0.1875 0.609375 0.515625 1.03125q0.328125 0.421875 0.796875 0.640625q0.46875 0.21875 1.0625 0.21875q0.5625 0 0.921875 -0.125q0.375 -0.140625 0.609375 -0.296875q0.25 -0.171875 0.40625 -0.296875q0.15625 -0.140625 0.3125 -0.140625q0.1875 0 0.296875 0.140625l0.421875 0.5625q-0.5625 0.703125 -1.421875 1.03125q-0.859375 0.328125 -1.8125 0.328125q-0.828125 0 -1.53125 -0.296875q-0.703125 -0.3125 -1.234375 -0.890625q-0.515625 -0.578125 -0.8125 -1.40625q-0.296875 -0.84375 -0.296875 -1.921875q0 -0.984375 0.265625 -1.8125q0.28125 -0.828125 0.796875 -1.421875q0.53125 -0.609375 1.296875 -0.953125q0.78125 -0.34375 1.78125 -0.34375q0.90625 0 1.609375 0.3125q0.71875 0.296875 1.265625 0.84375l-0.40625 0.546875zm2.1079102 7.21875l0 -12.765625l1.546875 0l0 5.171875q0.5625 -0.609375 1.234375 -0.96875q0.6875 -0.359375 1.578125 -0.359375q0.71875 0 1.265625 0.25q0.5625 0.234375 0.921875 0.671875q0.375 0.4375 0.5625 1.0625q0.1875 0.609375 0.1875 1.34375l0 5.59375l-1.53125 0l0 -5.59375q0 -0.984375 -0.46875 -1.53125q-0.453125 -0.5625 -1.375 -0.5625q-0.6875 0 -1.28125 0.328125q-0.59375 0.328125 -1.09375 0.890625l0 6.46875l-1.546875 0zm13.1032715 -8.921875q0.796875 0 1.453125 0.265625q0.671875 0.265625 1.15625 0.765625q0.484375 0.5 0.75 1.234375q0.28125 0.734375 0.28125 1.671875q0 0.359375 -0.078125 0.484375q-0.078125 0.109375 -0.296875 0.109375l-5.828125 0q0.015625 0.84375 0.21875 1.453125q0.203125 0.609375 0.5625 1.03125q0.375 0.40625 0.875 0.609375q0.5 0.203125 1.125 0.203125q0.578125 0 1.0 -0.125q0.421875 -0.140625 0.71875 -0.296875q0.3125 -0.15625 0.515625 -0.28125q0.203125 -0.140625 0.34375 -0.140625q0.203125 0 0.296875 0.140625l0.4375 0.5625q-0.28125 0.34375 -0.6875 0.609375q-0.390625 0.25 -0.859375 0.421875q-0.453125 0.15625 -0.9375 0.234375q-0.484375 0.09375 -0.953125 0.09375q-0.90625 0 -1.6875 -0.3125q-0.765625 -0.3125 -1.328125 -0.90625q-0.546875 -0.59375 -0.859375 -1.46875q-0.3125 -0.875 -0.3125 -2.0q0 -0.921875 0.28125 -1.71875q0.28125 -0.796875 0.8125 -1.375q0.53125 -0.59375 1.28125 -0.921875q0.765625 -0.34375 1.71875 -0.34375zm0.046875 1.140625q-1.125 0 -1.765625 0.65625q-0.640625 0.640625 -0.796875 1.78125l4.765625 0q0 -0.546875 -0.140625 -0.984375q-0.140625 -0.453125 -0.4375 -0.765625q-0.28125 -0.328125 -0.703125 -0.5q-0.40625 -0.1875 -0.921875 -0.1875zm8.220642 7.921875q-1.03125 0 -1.59375 -0.578125q-0.5625 -0.578125 -0.5625 -1.671875l0 -5.375l-1.0625 0q-0.125 0 -0.234375 -0.078125q-0.09375 -0.09375 -0.09375 -0.265625l0 -0.609375l1.4375 -0.1875l0.359375 -2.703125q0.015625 -0.140625 0.109375 -0.21875q0.09375 -0.078125 0.25 -0.078125l0.78125 0l0 3.015625l2.515625 0l0 1.125l-2.515625 0l0 5.265625q0 0.5625 0.265625 0.828125q0.265625 0.265625 0.6875 0.265625q0.25 0 0.421875 -0.0625q0.1875 -0.0625 0.3125 -0.140625q0.125 -0.078125 0.21875 -0.140625q0.09375 -0.078125 0.15625 -0.078125q0.125 0 0.21875 0.15625l0.453125 0.734375q-0.390625 0.375 -0.96875 0.59375q-0.5625 0.203125 -1.15625 0.203125zm6.46344 0q-1.03125 0 -1.59375 -0.578125q-0.5625 -0.578125 -0.5625 -1.671875l0 -5.375l-1.0625 0q-0.125 0 -0.234375 -0.078125q-0.09375 -0.09375 -0.09375 -0.265625l0 -0.609375l1.4375 -0.1875l0.359375 -2.703125q0.015625 -0.140625 0.109375 -0.21875q0.09375 -0.078125 0.25 -0.078125l0.78125 0l0 3.015625l2.515625 0l0 1.125l-2.515625 0l0 5.265625q0 0.5625 0.265625 0.828125q0.265625 0.265625 0.6875 0.265625q0.25 0 0.421875 -0.0625q0.1875 -0.0625 0.3125 -0.140625q0.125 -0.078125 0.21875 -0.140625q0.09375 -0.078125 0.15625 -0.078125q0.125 0 0.21875 0.15625l0.453125 0.734375q-0.390625 0.375 -0.96875 0.59375q-0.5625 0.203125 -1.15625 0.203125zm5.52594 -8.921875l0 8.78125l-1.546875 0l0 -8.78125l1.546875 0zm0.34375 -2.75q0 0.21875 -0.09375 0.421875q-0.09375 0.1875 -0.25 0.34375q-0.140625 0.15625 -0.34375 0.25q-0.203125 0.078125 -0.421875 0.078125q-0.21875 0 -0.421875 -0.078125q-0.1875 -0.09375 -0.34375 -0.25q-0.15625 -0.15625 -0.25 -0.34375q-0.078125 -0.203125 -0.078125 -0.421875q0 -0.21875 0.078125 -0.421875q0.09375 -0.21875 0.25 -0.359375q0.15625 -0.15625 0.34375 -0.234375q0.203125 -0.09375 0.421875 -0.09375q0.21875 0 0.421875 0.09375q0.203125 0.078125 0.34375 0.234375q0.15625 0.140625 0.25 0.359375q0.09375 0.203125 0.09375 0.421875zm1.9204102 10.46875q0 -0.203125 0.078125 -0.375q0.078125 -0.1875 0.203125 -0.3125q0.140625 -0.140625 0.328125 -0.21875q0.1875 -0.078125 0.421875 -0.078125q0.25 0 0.453125 0.09375q0.203125 0.09375 0.328125 0.265625q0.140625 0.171875 0.203125 0.390625q0.078125 0.21875 0.078125 0.484375q0 0.390625 -0.109375 0.8125q-0.109375 0.421875 -0.328125 0.828125q-0.203125 0.40625 -0.515625 0.796875q-0.296875 0.390625 -0.6875 0.71875l-0.265625 -0.25q-0.109375 -0.09375 -0.109375 -0.234375q0 -0.125 0.125 -0.234375q0.078125 -0.09375 0.21875 -0.265625q0.140625 -0.15625 0.265625 -0.375q0.140625 -0.203125 0.25 -0.453125q0.125 -0.25 0.1875 -0.53125l-0.125 0q-0.21875 0 -0.40625 -0.078125q-0.171875 -0.078125 -0.3125 -0.21875q-0.125 -0.140625 -0.203125 -0.328125q-0.078125 -0.203125 -0.078125 -0.4375zm14.06488 -9.40625q-0.078125 0.125 -0.171875 0.1875q-0.078125 0.0625 -0.203125 0.0625q-0.15625 0 -0.359375 -0.140625q-0.1875 -0.15625 -0.484375 -0.328125q-0.296875 -0.171875 -0.71875 -0.3125q-0.421875 -0.15625 -1.015625 -0.15625q-0.5625 0 -1.0 0.15625q-0.4375 0.140625 -0.734375 0.40625q-0.28125 0.25 -0.4375 0.609375q-0.140625 0.34375 -0.140625 0.75q0 0.53125 0.25 0.875q0.265625 0.34375 0.6875 0.59375q0.421875 0.234375 0.953125 0.40625q0.53125 0.171875 1.09375 0.375q0.5625 0.1875 1.09375 0.421875q0.53125 0.234375 0.953125 0.609375q0.421875 0.359375 0.671875 0.890625q0.25 0.515625 0.25 1.296875q0 0.8125 -0.28125 1.53125q-0.265625 0.703125 -0.796875 1.234375q-0.53125 0.53125 -1.3125 0.84375q-0.78125 0.296875 -1.765625 0.296875q-1.203125 0 -2.203125 -0.4375q-0.984375 -0.4375 -1.6875 -1.1875l0.484375 -0.796875q0.078125 -0.09375 0.171875 -0.15625q0.09375 -0.0625 0.21875 -0.0625q0.1875 0 0.421875 0.203125q0.234375 0.1875 0.578125 0.421875q0.359375 0.234375 0.84375 0.4375q0.5 0.1875 1.21875 0.1875q0.609375 0 1.078125 -0.15625q0.46875 -0.171875 0.78125 -0.46875q0.328125 -0.3125 0.5 -0.71875q0.171875 -0.421875 0.171875 -0.9375q0 -0.5625 -0.25 -0.921875q-0.25 -0.359375 -0.671875 -0.59375q-0.421875 -0.25 -0.953125 -0.40625q-0.53125 -0.171875 -1.09375 -0.34375q-0.546875 -0.1875 -1.09375 -0.421875q-0.53125 -0.234375 -0.953125 -0.609375q-0.40625 -0.375 -0.65625 -0.921875q-0.25 -0.5625 -0.25 -1.390625q0 -0.65625 0.25 -1.265625q0.25 -0.625 0.734375 -1.09375q0.484375 -0.484375 1.203125 -0.765625q0.71875 -0.28125 1.640625 -0.28125q1.046875 0 1.90625 0.328125q0.859375 0.328125 1.5 0.953125l-0.421875 0.796875zm9.043335 10.46875l-0.6875 0q-0.234375 0 -0.375 -0.0625q-0.125 -0.078125 -0.171875 -0.296875l-0.171875 -0.8125q-0.359375 0.3125 -0.6875 0.5625q-0.328125 0.234375 -0.6875 0.40625q-0.359375 0.171875 -0.78125 0.25q-0.40625 0.09375 -0.90625 0.09375q-0.515625 0 -0.96875 -0.140625q-0.4375 -0.140625 -0.765625 -0.421875q-0.328125 -0.296875 -0.53125 -0.734375q-0.1875 -0.4375 -0.1875 -1.03125q0 -0.53125 0.28125 -1.0q0.296875 -0.484375 0.921875 -0.859375q0.640625 -0.375 1.671875 -0.609375q1.03125 -0.234375 2.515625 -0.28125l0 -0.671875q0 -1.03125 -0.4375 -1.546875q-0.4375 -0.53125 -1.28125 -0.53125q-0.5625 0 -0.953125 0.140625q-0.390625 0.140625 -0.671875 0.328125q-0.28125 0.171875 -0.484375 0.3125q-0.203125 0.140625 -0.40625 0.140625q-0.15625 0 -0.28125 -0.078125q-0.109375 -0.078125 -0.171875 -0.203125l-0.28125 -0.484375q0.734375 -0.703125 1.5625 -1.046875q0.84375 -0.359375 1.875 -0.359375q0.734375 0 1.296875 0.25q0.578125 0.234375 0.96875 0.671875q0.390625 0.4375 0.59375 1.0625q0.203125 0.609375 0.203125 1.34375l0 5.609375zm-4.015625 -0.9375q0.40625 0 0.75 -0.078125q0.34375 -0.09375 0.640625 -0.234375q0.296875 -0.15625 0.5625 -0.375q0.28125 -0.21875 0.53125 -0.5l0 -1.828125q-1.0625 0.03125 -1.8125 0.171875q-0.734375 0.140625 -1.203125 0.359375q-0.46875 0.203125 -0.6875 0.5q-0.203125 0.296875 -0.203125 0.65625q0 0.34375 0.109375 0.609375q0.109375 0.25 0.296875 0.40625q0.203125 0.15625 0.453125 0.234375q0.265625 0.078125 0.5625 0.078125zm6.3479004 0.9375l0 -8.78125l0.921875 0q0.328125 0 0.40625 0.328125l0.125 0.890625q0.484375 -0.59375 1.078125 -0.96875q0.609375 -0.390625 1.40625 -0.390625q0.890625 0 1.4375 0.5q0.546875 0.5 0.796875 1.328125q0.171875 -0.46875 0.46875 -0.8125q0.3125 -0.34375 0.671875 -0.5625q0.375 -0.234375 0.796875 -0.34375q0.421875 -0.109375 0.859375 -0.109375q0.6875 0 1.234375 0.234375q0.546875 0.21875 0.921875 0.640625q0.375 0.421875 0.5625 1.046875q0.203125 0.609375 0.203125 1.40625l0 5.59375l-1.53125 0l0 -5.59375q0 -1.03125 -0.453125 -1.5625q-0.453125 -0.53125 -1.3125 -0.53125q-0.375 0 -0.71875 0.140625q-0.34375 0.125 -0.609375 0.390625q-0.25 0.265625 -0.40625 0.65625q-0.15625 0.390625 -0.15625 0.90625l0 5.59375l-1.546875 0l0 -5.59375q0 -1.046875 -0.421875 -1.5625q-0.421875 -0.53125 -1.234375 -0.53125q-0.578125 0 -1.0625 0.3125q-0.484375 0.3125 -0.890625 0.828125l0 6.546875l-1.546875 0zm15.554626 -8.78125l0 5.59375q0 1.0 0.453125 1.546875q0.46875 0.546875 1.390625 0.546875q0.6875 0 1.28125 -0.3125q0.59375 -0.328125 1.09375 -0.890625l0 -6.484375l1.546875 0l0 8.78125l-0.921875 0q-0.328125 0 -0.40625 -0.328125l-0.125 -0.9375q-0.578125 0.640625 -1.296875 1.03125q-0.703125 0.375 -1.609375 0.375q-0.71875 0 -1.28125 -0.234375q-0.546875 -0.25 -0.921875 -0.671875q-0.375 -0.4375 -0.5625 -1.046875q-0.171875 -0.625 -0.171875 -1.375l0 -5.59375l1.53125 0zm11.7751465 -0.140625q0.796875 0 1.453125 0.265625q0.671875 0.265625 1.15625 0.765625q0.484375 0.5 0.75 1.234375q0.28125 0.734375 0.28125 1.671875q0 0.359375 -0.078125 0.484375q-0.078125 0.109375 -0.296875 0.109375l-5.828125 0q0.015625 0.84375 0.21875 1.453125q0.203125 0.609375 0.5625 1.03125q0.375 0.40625 0.875 0.609375q0.5 0.203125 1.125 0.203125q0.578125 0 1.0 -0.125q0.421875 -0.140625 0.71875 -0.296875q0.3125 -0.15625 0.515625 -0.28125q0.203125 -0.140625 0.34375 -0.140625q0.203125 0 0.296875 0.140625l0.4375 0.5625q-0.28125 0.34375 -0.6875 0.609375q-0.390625 0.25 -0.859375 0.421875q-0.453125 0.15625 -0.9375 0.234375q-0.484375 0.09375 -0.953125 0.09375q-0.90625 0 -1.6875 -0.3125q-0.765625 -0.3125 -1.328125 -0.90625q-0.546875 -0.59375 -0.859375 -1.46875q-0.3125 -0.875 -0.3125 -2.0q0 -0.921875 0.28125 -1.71875q0.28125 -0.796875 0.8125 -1.375q0.53125 -0.59375 1.28125 -0.921875q0.765625 -0.34375 1.71875 -0.34375zm0.046875 1.140625q-1.125 0 -1.765625 0.65625q-0.640625 0.640625 -0.796875 1.78125l4.765625 0q0 -0.546875 -0.140625 -0.984375q-0.140625 -0.453125 -0.4375 -0.765625q-0.28125 -0.328125 -0.703125 -0.5q-0.40625 -0.1875 -0.921875 -0.1875zm7.283142 -4.984375l0 12.765625l-1.546875 0l0 -12.765625l1.546875 0zm6.186035 3.84375q0.796875 0 1.453125 0.265625q0.671875 0.265625 1.15625 0.765625q0.484375 0.5 0.75 1.234375q0.28125 0.734375 0.28125 1.671875q0 0.359375 -0.078125 0.484375q-0.078125 0.109375 -0.296875 0.109375l-5.828125 0q0.015625 0.84375 0.21875 1.453125q0.203125 0.609375 0.5625 1.03125q0.375 0.40625 0.875 0.609375q0.5 0.203125 1.125 0.203125q0.578125 0 1.0 -0.125q0.421875 -0.140625 0.71875 -0.296875q0.3125 -0.15625 0.515625 -0.28125q0.203125 -0.140625 0.34375 -0.140625q0.203125 0 0.296875 0.140625l0.4375 0.5625q-0.28125 0.34375 -0.6875 0.609375q-0.390625 0.25 -0.859375 0.421875q-0.453125 0.15625 -0.9375 0.234375q-0.484375 0.09375 -0.953125 0.09375q-0.90625 0 -1.6875 -0.3125q-0.765625 -0.3125 -1.328125 -0.90625q-0.546875 -0.59375 -0.859375 -1.46875q-0.3125 -0.875 -0.3125 -2.0q0 -0.921875 0.28125 -1.71875q0.28125 -0.796875 0.8125 -1.375q0.53125 -0.59375 1.28125 -0.921875q0.765625 -0.34375 1.71875 -0.34375zm0.046875 1.140625q-1.125 0 -1.765625 0.65625q-0.640625 0.640625 -0.796875 1.78125l4.765625 0q0 -0.546875 -0.140625 -0.984375q-0.140625 -0.453125 -0.4375 -0.765625q-0.28125 -0.328125 -0.703125 -0.5q-0.40625 -0.1875 -0.921875 -0.1875zm15.252502 3.296875q0.125 0.203125 0.21875 0.4375q0.09375 0.21875 0.171875 0.453125q0.09375 -0.234375 0.1875 -0.453125q0.09375 -0.21875 0.21875 -0.453125l4.203125 -7.625q0.109375 -0.203125 0.234375 -0.25q0.125 -0.046875 0.34375 -0.046875l1.234375 0l0 12.421875l-1.46875 0l0 -9.125q0 -0.1875 0 -0.390625q0.015625 -0.203125 0.03125 -0.421875l-4.25 7.765625q-0.21875 0.390625 -0.609375 0.390625l-0.234375 0q-0.390625 0 -0.609375 -0.390625l-4.359375 -7.796875q0.03125 0.234375 0.046875 0.453125q0.015625 0.203125 0.015625 0.390625l0 9.125l-1.484375 0l0 -12.421875l1.25 0q0.21875 0 0.34375 0.046875q0.125 0.046875 0.234375 0.25l4.28125 7.640625l0 0zm13.067017 -4.4375q0.796875 0 1.453125 0.265625q0.671875 0.265625 1.15625 0.765625q0.484375 0.5 0.75 1.234375q0.28125 0.734375 0.28125 1.671875q0 0.359375 -0.078125 0.484375q-0.078125 0.109375 -0.296875 0.109375l-5.828125 0q0.015625 0.84375 0.21875 1.453125q0.203125 0.609375 0.5625 1.03125q0.375 0.40625 0.875 0.609375q0.5 0.203125 1.125 0.203125q0.578125 0 1.0 -0.125q0.421875 -0.140625 0.71875 -0.296875q0.3125 -0.15625 0.515625 -0.28125q0.203125 -0.140625 0.34375 -0.140625q0.203125 0 0.296875 0.140625l0.4375 0.5625q-0.28125 0.34375 -0.6875 0.609375q-0.390625 0.25 -0.859375 0.421875q-0.453125 0.15625 -0.9375 0.234375q-0.484375 0.09375 -0.953125 0.09375q-0.90625 0 -1.6875 -0.3125q-0.765625 -0.3125 -1.328125 -0.90625q-0.546875 -0.59375 -0.859375 -1.46875q-0.3125 -0.875 -0.3125 -2.0q0 -0.921875 0.28125 -1.71875q0.28125 -0.796875 0.8125 -1.375q0.53125 -0.59375 1.28125 -0.921875q0.765625 -0.34375 1.71875 -0.34375zm0.046875 1.140625q-1.125 0 -1.765625 0.65625q-0.640625 0.640625 -0.796875 1.78125l4.765625 0q0 -0.546875 -0.140625 -0.984375q-0.140625 -0.453125 -0.4375 -0.765625q-0.28125 -0.328125 -0.703125 -0.5q-0.40625 -0.1875 -0.921875 -0.1875zm7.283142 -4.984375l0 12.765625l-1.546875 0l0 -12.765625l1.546875 0zm6.26416 3.84375q0.96875 0 1.734375 0.328125q0.78125 0.3125 1.3125 0.90625q0.546875 0.59375 0.84375 1.4375q0.296875 0.828125 0.296875 1.859375q0 1.03125 -0.296875 1.875q-0.296875 0.828125 -0.84375 1.421875q-0.53125 0.578125 -1.3125 0.90625q-0.765625 0.3125 -1.734375 0.3125q-0.953125 0 -1.734375 -0.3125q-0.78125 -0.328125 -1.328125 -0.90625q-0.53125 -0.59375 -0.828125 -1.421875q-0.296875 -0.84375 -0.296875 -1.875q0 -1.03125 0.296875 -1.859375q0.296875 -0.84375 0.828125 -1.4375q0.546875 -0.59375 1.328125 -0.90625q0.78125 -0.328125 1.734375 -0.328125zm0 7.84375q1.296875 0 1.9375 -0.875q0.65625 -0.875 0.65625 -2.4375q0 -1.5625 -0.65625 -2.4375q-0.640625 -0.875 -1.9375 -0.875q-0.65625 0 -1.140625 0.234375q-0.484375 0.21875 -0.8125 0.640625q-0.328125 0.421875 -0.484375 1.046875q-0.15625 0.625 -0.15625 1.390625q0 0.78125 0.15625 1.40625q0.15625 0.609375 0.484375 1.03125q0.328125 0.421875 0.8125 0.65625q0.484375 0.21875 1.140625 0.21875zm8.7438965 1.21875q-1.03125 0 -1.59375 -0.578125q-0.5625 -0.578125 -0.5625 -1.671875l0 -5.375l-1.0625 0q-0.125 0 -0.234375 -0.078125q-0.09375 -0.09375 -0.09375 -0.265625l0 -0.609375l1.4375 -0.1875l0.359375 -2.703125q0.015625 -0.140625 0.109375 -0.21875q0.09375 -0.078125 0.25 -0.078125l0.78125 0l0 3.015625l2.515625 0l0 1.125l-2.515625 0l0 5.265625q0 0.5625 0.265625 0.828125q0.265625 0.265625 0.6875 0.265625q0.25 0 0.421875 -0.0625q0.1875 -0.0625 0.3125 -0.140625q0.125 -0.078125 0.21875 -0.140625q0.09375 -0.078125 0.15625 -0.078125q0.125 0 0.21875 0.15625l0.453125 0.734375q-0.390625 0.375 -0.96875 0.59375q-0.5625 0.203125 -1.15625 0.203125zm6.46344 0q-1.03125 0 -1.59375 -0.578125q-0.5625 -0.578125 -0.5625 -1.671875l0 -5.375l-1.0625 0q-0.125 0 -0.234375 -0.078125q-0.09375 -0.09375 -0.09375 -0.265625l0 -0.609375l1.4375 -0.1875l0.359375 -2.703125q0.015625 -0.140625 0.109375 -0.21875q0.09375 -0.078125 0.25 -0.078125l0.78125 0l0 3.015625l2.515625 0l0 1.125l-2.515625 0l0 5.265625q0 0.5625 0.265625 0.828125q0.265625 0.265625 0.6875 0.265625q0.25 0 0.421875 -0.0625q0.1875 -0.0625 0.3125 -0.140625q0.125 -0.078125 0.21875 -0.140625q0.09375 -0.078125 0.15625 -0.078125q0.125 0 0.21875 0.15625l0.453125 0.734375q-0.390625 0.375 -0.96875 0.59375q-0.5625 0.203125 -1.15625 0.203125zm7.354065 -9.0625q0.96875 0 1.734375 0.328125q0.78125 0.3125 1.3125 0.90625q0.546875 0.59375 0.84375 1.4375q0.296875 0.828125 0.296875 1.859375q0 1.03125 -0.296875 1.875q-0.296875 0.828125 -0.84375 1.421875q-0.53125 0.578125 -1.3125 0.90625q-0.765625 0.3125 -1.734375 0.3125q-0.953125 0 -1.734375 -0.3125q-0.78125 -0.328125 -1.328125 -0.90625q-0.53125 -0.59375 -0.828125 -1.421875q-0.296875 -0.84375 -0.296875 -1.875q0 -1.03125 0.296875 -1.859375q0.296875 -0.84375 0.828125 -1.4375q0.546875 -0.59375 1.328125 -0.90625q0.78125 -0.328125 1.734375 -0.328125zm0 7.84375q1.296875 0 1.9375 -0.875q0.65625 -0.875 0.65625 -2.4375q0 -1.5625 -0.65625 -2.4375q-0.640625 -0.875 -1.9375 -0.875q-0.65625 0 -1.140625 0.234375q-0.484375 0.21875 -0.8125 0.640625q-0.328125 0.421875 -0.484375 1.046875q-0.15625 0.625 -0.15625 1.390625q0 0.78125 0.15625 1.40625q0.15625 0.609375 0.484375 1.03125q0.328125 0.421875 0.8125 0.65625q0.484375 0.21875 1.140625 0.21875z" fill-rule="nonzero"/></g></svg>