<svg version="1.1" viewBox="0.0 0.0 960.0 540.0" fill="none" stroke="none" stroke-linecap="square" stroke-miterlimit="10" xmlns:xlink="http://www.w3.org/1999/xlink" xmlns="http://www.w3.org/2000/svg"><clipPath id="g29c0f8990c1_0_8.0"><path d="m0 0l960.0 0l0 540.0l-960.0 0l0 -540.0z" clip-rule="nonzero"/></clipPath><g clip-path="url(#g29c0f8990c1_0_8.0)"><path fill="#1b212c" d="m0 0l960.0 0l0 540.0l-960.0 0z" fill-rule="evenodd"/><path fill="#0145ac" d="m42.45669 124.91353l-42.45669 -42.456696l0 -42.456688l84.91338 84.91338z" fill-rule="evenodd"/><path fill="#82c7a5" d="m108.96063 104.24028l-42.456696 -42.45669l-42.45669 0l84.91339 84.91339z" fill-rule="evenodd"/><path fill="#000000" fill-opacity="0.0" d="m157.92914 207.26509l629.3228 0l0 107.81102l-629.3228 0z" fill-rule="evenodd"/><path fill="#ffffff" d="m189.38226 267.7776q-4.265625 0 -7.875 -1.40625q-3.59375 -1.40625 -6.234375 -3.96875q-2.640625 -2.5625 -4.109375 -6.03125q-1.46875 -3.46875 -1.46875 -7.578125q0 -4.09375 1.46875 -7.5625q1.46875 -3.46875 4.125 -6.03125q2.671875 -2.5625 6.265625 -3.96875q3.609375 -1.421875 7.875 -1.421875q4.265625 0 7.8125 1.34375q3.546875 1.328125 6.0625 4.046875l-2.453125 2.515625q-2.359375 -2.359375 -5.1875 -3.359375q-2.8125 -1.015625 -6.0625 -1.015625q-3.46875 0 -6.375 1.140625q-2.90625 1.140625 -5.078125 3.25q-2.15625 2.109375 -3.359375 4.90625q-1.1875 2.796875 -1.1875 6.15625q0 3.3125 1.1875 6.140625q1.203125 2.828125 3.359375 4.9375q2.171875 2.09375 5.078125 3.25q2.90625 1.140625 6.3125 1.140625q3.203125 0 6.046875 -0.953125q2.859375 -0.96875 5.265625 -3.25l2.234375 2.984375q-2.671875 2.34375 -6.25 3.546875q-3.5625 1.1875 -7.453125 1.1875zm9.921875 -5.21875l0 -13.765625l3.78125 0l0 14.25l-3.78125 -0.484375zm14.12883 4.90625l0 -28.0l3.625 0l0 7.625l-0.375 -1.328125q1.171875 -3.203125 3.9375 -4.875q2.78125 -1.6875 6.890625 -1.6875l0 3.6875q-0.21875 0 -0.4375 -0.03125q-0.203125 -0.03125 -0.421875 -0.03125q-4.421875 0 -6.9375 2.703125q-2.5 2.6875 -2.5 7.640625l0 14.296875l-3.78125 0zm36.424744 0l0 -6.1875l-0.15625 -1.015625l0 -10.34375q0 -3.578125 -2.0 -5.484375q-2.0 -1.921875 -5.953125 -1.921875q-2.71875 0 -5.171875 0.90625q-2.453125 0.90625 -4.15625 2.390625l-1.71875 -2.828125q2.140625 -1.8125 5.125 -2.796875q2.984375 -0.984375 6.296875 -0.984375q5.4375 0 8.390625 2.703125q2.96875 2.6875 2.96875 8.171875l0 17.390625l-3.625 0zm-9.65625 0.265625q-3.140625 0 -5.46875 -1.03125q-2.3125 -1.046875 -3.546875 -2.890625q-1.21875 -1.84375 -1.21875 -4.234375q0 -2.1875 1.03125 -3.96875q1.046875 -1.796875 3.421875 -2.890625q2.375 -1.09375 6.375 -1.09375l9.640625 0l0 2.828125l-9.546875 0q-4.046875 0 -5.625 1.453125q-1.5625 1.4375 -1.5625 3.5625q0 2.40625 1.859375 3.84375q1.875 1.4375 5.234375 1.4375q3.1875 0 5.5 -1.46875q2.328125 -1.46875 3.40625 -4.234375l0.84375 2.609375q-1.0625 2.765625 -3.703125 4.421875q-2.640625 1.65625 -6.640625 1.65625zm20.526047 -0.265625l0 -2.5l18.671875 -23.625l0.796875 1.28125l-19.140625 0l0 -3.15625l22.125 0l0 2.453125l-18.609375 23.6875l-0.953125 -1.28125l19.9375 0l0 3.140625l-22.828125 0zm30.297485 0l0 -28.0l3.78125 0l0 28.0l-3.78125 0zm1.921875 -34.1875q-1.171875 0 -1.984375 -0.796875q-0.796875 -0.796875 -0.796875 -1.921875q0 -1.109375 0.796875 -1.875q0.8125 -0.78125 1.984375 -0.78125q1.171875 0 1.96875 0.75q0.796875 0.734375 0.796875 1.859375q0 1.171875 -0.78125 1.96875q-0.765625 0.796875 -1.984375 0.796875zm24.313995 34.453125q-4.375 0 -7.6875 -1.828125q-3.296875 -1.84375 -5.171875 -5.0625q-1.859375 -3.234375 -1.859375 -7.40625q0 -4.15625 1.78125 -7.34375q1.796875 -3.203125 4.90625 -5.046875q3.125 -1.84375 7.015625 -1.84375q3.953125 0 7.015625 1.796875q3.0625 1.78125 4.8125 5.015625q1.765625 3.21875 1.765625 7.421875q0 0.265625 -0.03125 0.5625q-0.015625 0.296875 -0.015625 0.609375l-24.375 0l0 -2.8125l22.34375 0l-1.484375 1.109375q0 -3.03125 -1.3125 -5.40625q-1.296875 -2.375 -3.546875 -3.703125q-2.234375 -1.34375 -5.171875 -1.34375q-2.875 0 -5.171875 1.34375q-2.296875 1.328125 -3.578125 3.734375q-1.28125 2.390625 -1.28125 5.484375l0 0.59375q0 3.1875 1.40625 5.625q1.421875 2.421875 3.953125 3.78125q2.546875 1.359375 5.796875 1.359375q2.5625 0 4.765625 -0.90625q2.21875 -0.90625 3.8125 -2.765625l2.140625 2.453125q-1.875 2.234375 -4.671875 3.40625q-2.796875 1.171875 -6.15625 1.171875zm48.744568 0q-3.625 0 -6.5625 -1.671875q-2.9375 -1.6875 -4.671875 -4.859375q-1.734375 -3.171875 -1.734375 -7.765625q0 -4.578125 1.703125 -7.75q1.71875 -3.171875 4.640625 -4.828125q2.9375 -1.65625 6.625 -1.65625q4.0 0 7.171875 1.796875q3.171875 1.78125 4.984375 5.015625q1.8125 3.21875 1.8125 7.421875q0 4.265625 -1.8125 7.46875q-1.8125 3.203125 -4.984375 5.015625q-3.171875 1.8125 -7.171875 1.8125zm-14.453125 10.078125l0 -38.34375l3.625 0l0 8.421875l-0.375 5.609375l0.53125 5.65625l0 18.65625l-3.78125 0zm14.1875 -13.4375q2.984375 0 5.328125 -1.359375q2.34375 -1.359375 3.734375 -3.828125q1.390625 -2.484375 1.390625 -5.75q0 -3.25 -1.390625 -5.703125q-1.390625 -2.453125 -3.734375 -3.828125q-2.34375 -1.390625 -5.328125 -1.390625q-2.984375 0 -5.359375 1.390625q-2.375 1.375 -3.734375 3.828125q-1.359375 2.453125 -1.359375 5.703125q0 3.265625 1.359375 5.75q1.359375 2.46875 3.734375 3.828125q2.375 1.359375 5.359375 1.359375zm33.859528 3.359375q-4.375 0 -7.6875 -1.828125q-3.296875 -1.84375 -5.171875 -5.0625q-1.859375 -3.234375 -1.859375 -7.40625q0 -4.15625 1.78125 -7.34375q1.796875 -3.203125 4.90625 -5.046875q3.125 -1.84375 7.015625 -1.84375q3.953125 0 7.015625 1.796875q3.0625 1.78125 4.8125 5.015625q1.765625 3.21875 1.765625 7.421875q0 0.265625 -0.03125 0.5625q-0.015625 0.296875 -0.015625 0.609375l-24.375 0l0 -2.8125l22.34375 0l-1.484375 1.109375q0 -3.03125 -1.3125 -5.40625q-1.296875 -2.375 -3.546875 -3.703125q-2.234375 -1.34375 -5.171875 -1.34375q-2.875 0 -5.171875 1.34375q-2.296875 1.328125 -3.578125 3.734375q-1.28125 2.390625 -1.28125 5.484375l0 0.59375q0 3.1875 1.40625 5.625q1.421875 2.421875 3.953125 3.78125q2.546875 1.359375 5.796875 1.359375q2.5625 0 4.765625 -0.90625q2.21875 -0.90625 3.8125 -2.765625l2.140625 2.453125q-1.875 2.234375 -4.671875 3.40625q-2.796875 1.171875 -6.15625 1.171875zm20.319519 -0.265625l0 -28.0l3.625 0l0 7.625l-0.375 -1.328125q1.171875 -3.203125 3.9375 -4.875q2.78125 -1.6875 6.890625 -1.6875l0 3.6875q-0.21875 0 -0.4375 -0.03125q-0.203125 -0.03125 -0.421875 -0.03125q-4.421875 0 -6.9375 2.703125q-2.5 2.6875 -2.5 7.640625l0 14.296875l-3.78125 0z" fill-rule="nonzero"/><path fill="#ffffff" d="m455.27533 267.4651l0 -39.5625l3.78125 0l0 39.5625l-3.78125 0zm12.04837 -26.5625l2.34375 -9.8125l0.4375 2.25q-1.234375 0 -2.0625 -0.765625q-0.828125 -0.78125 -0.828125 -2.0625q0 -1.28125 0.828125 -2.078125q0.828125 -0.8125 2.0 -0.8125q1.234375 0 2.0 0.828125q0.78125 0.828125 0.78125 2.0625q0 0.421875 -0.0625 0.859375q-0.046875 0.421875 -0.1875 0.9375q-0.125 0.5 -0.390625 1.234375l-2.296875 7.359375l-2.5625 0zm30.615936 26.5625l0 -6.1875l-0.15625 -1.015625l0 -10.34375q0 -3.578125 -2.0 -5.484375q-2.0 -1.921875 -5.953125 -1.921875q-2.71875 0 -5.171875 0.90625q-2.453125 0.90625 -4.15625 2.390625l-1.71875 -2.828125q2.140625 -1.8125 5.125 -2.796875q2.984375 -0.984375 6.296875 -0.984375q5.4375 0 8.390625 2.703125q2.96875 2.6875 2.96875 8.171875l0 17.390625l-3.625 0zm-9.65625 0.265625q-3.140625 0 -5.46875 -1.03125q-2.3125 -1.046875 -3.546875 -2.890625q-1.21875 -1.84375 -1.21875 -4.234375q0 -2.1875 1.03125 -3.96875q1.046875 -1.796875 3.421875 -2.890625q2.375 -1.09375 6.375 -1.09375l9.640625 0l0 2.828125l-9.546875 0q-4.046875 0 -5.625 1.453125q-1.5625 1.4375 -1.5625 3.5625q0 2.40625 1.859375 3.84375q1.875 1.4375 5.234375 1.4375q3.1875 0 5.5 -1.46875q2.328125 -1.46875 3.40625 -4.234375l0.84375 2.609375q-1.0625 2.765625 -3.703125 4.421875q-2.640625 1.65625 -6.640625 1.65625zm32.416687 0q-3.9375 0 -6.078125 -2.125q-2.125 -2.140625 -2.125 -6.03125l0 -26.296875l3.78125 0l0 26.078125q0 2.453125 1.25 3.796875q1.265625 1.328125 3.609375 1.328125q2.5 0 4.15625 -1.4375l1.328125 2.71875q-1.109375 1.015625 -2.6875 1.5q-1.578125 0.46875 -3.234375 0.46875zm-13.21875 -25.109375l0 -3.15625l17.328125 0l0 3.15625l-17.328125 0zm34.12323 25.109375q-3.9375 0 -6.078125 -2.125q-2.125 -2.140625 -2.125 -6.03125l0 -26.296875l3.78125 0l0 26.078125q0 2.453125 1.25 3.796875q1.265625 1.328125 3.609375 1.328125q2.5 0 4.15625 -1.4375l1.328125 2.71875q-1.109375 1.015625 -2.6875 1.5q-1.578125 0.46875 -3.234375 0.46875zm-13.21875 -25.109375l0 -3.15625l17.328125 0l0 3.15625l-17.328125 0zm36.903503 25.109375q-4.375 0 -7.6875 -1.828125q-3.296875 -1.84375 -5.171875 -5.0625q-1.859375 -3.234375 -1.859375 -7.40625q0 -4.15625 1.78125 -7.34375q1.796875 -3.203125 4.90625 -5.046875q3.125 -1.84375 7.015625 -1.84375q3.953125 0 7.015625 1.796875q3.0625 1.78125 4.8125 5.015625q1.765625 3.21875 1.765625 7.421875q0 0.265625 -0.03125 0.5625q-0.015625 0.296875 -0.015625 0.609375l-24.375 0l0 -2.8125l22.34375 0l-1.484375 1.109375q0 -3.03125 -1.3125 -5.40625q-1.296875 -2.375 -3.546875 -3.703125q-2.234375 -1.34375 -5.171875 -1.34375q-2.875 0 -5.171875 1.34375q-2.296875 1.328125 -3.578125 3.734375q-1.28125 2.390625 -1.28125 5.484375l0 0.59375q0 3.1875 1.40625 5.625q1.421875 2.421875 3.953125 3.78125q2.546875 1.359375 5.796875 1.359375q2.5625 0 4.765625 -0.90625q2.21875 -0.90625 3.8125 -2.765625l2.140625 2.453125q-1.875 2.234375 -4.671875 3.40625q-2.796875 1.171875 -6.15625 1.171875zm34.616394 -28.53125q3.40625 0 5.984375 1.3125q2.59375 1.296875 4.0625 3.96875q1.46875 2.671875 1.46875 6.71875l0 16.265625l-3.796875 0l0 -15.890625q0 -4.421875 -2.21875 -6.6875q-2.203125 -2.265625 -6.203125 -2.265625q-2.984375 0 -5.203125 1.203125q-2.203125 1.1875 -3.40625 3.453125q-1.203125 2.265625 -1.203125 5.46875l0 14.71875l-3.78125 0l0 -28.0l3.625 0l0 7.6875l-0.59375 -1.453125q1.34375 -3.03125 4.265625 -4.765625q2.9375 -1.734375 7.0 -1.734375zm18.705994 28.265625l0 -2.5l18.671875 -23.625l0.796875 1.28125l-19.140625 0l0 -3.15625l22.125 0l0 2.453125l-18.609375 23.6875l-0.953125 -1.28125l19.9375 0l0 3.140625l-22.828125 0zm30.297485 0l0 -28.0l3.78125 0l0 28.0l-3.78125 0zm1.921875 -34.1875q-1.171875 0 -1.984375 -0.796875q-0.796875 -0.796875 -0.796875 -1.921875q0 -1.109375 0.796875 -1.875q0.8125 -0.78125 1.984375 -0.78125q1.171875 0 1.96875 0.75q0.796875 0.734375 0.796875 1.859375q0 1.171875 -0.78125 1.96875q-0.765625 0.796875 -1.984375 0.796875zm23.82965 34.453125q-4.046875 0 -7.28125 -1.828125q-3.21875 -1.84375 -5.09375 -5.0625q-1.859375 -3.234375 -1.859375 -7.40625q0 -4.203125 1.859375 -7.40625q1.875 -3.203125 5.0625 -5.015625q3.203125 -1.8125 7.3125 -1.8125q4.15625 0 7.375 1.8125q3.234375 1.8125 5.078125 5.015625q1.84375 3.203125 1.84375 7.40625q0 4.171875 -1.84375 7.40625q-1.84375 3.21875 -5.09375 5.0625q-3.25 1.828125 -7.359375 1.828125zm0 -3.359375q3.046875 0 5.390625 -1.359375q2.34375 -1.359375 3.703125 -3.828125q1.359375 -2.484375 1.359375 -5.75q0 -3.296875 -1.359375 -5.75q-1.359375 -2.453125 -3.703125 -3.8125q-2.34375 -1.359375 -5.328125 -1.359375q-2.984375 0 -5.34375 1.359375q-2.34375 1.359375 -3.734375 3.8125q-1.375 2.453125 -1.375 5.75q0 3.265625 1.375 5.75q1.390625 2.46875 3.734375 3.828125q2.359375 1.359375 5.28125 1.359375zm36.32727 -25.171875q3.40625 0 5.984375 1.3125q2.59375 1.296875 4.0625 3.96875q1.46875 2.671875 1.46875 6.71875l0 16.265625l-3.796875 0l0 -15.890625q0 -4.421875 -2.21875 -6.6875q-2.203125 -2.265625 -6.203125 -2.265625q-2.984375 0 -5.203125 1.203125q-2.203125 1.1875 -3.40625 3.453125q-1.203125 2.265625 -1.203125 5.46875l0 14.71875l-3.78125 0l0 -28.0l3.625 0l0 7.6875l-0.59375 -1.453125q1.34375 -3.03125 4.265625 -4.765625q2.9375 -1.734375 7.0 -1.734375zm33.643555 28.53125q-4.375 0 -7.6875 -1.828125q-3.296875 -1.84375 -5.171875 -5.0625q-1.859375 -3.234375 -1.859375 -7.40625q0 -4.15625 1.78125 -7.34375q1.796875 -3.203125 4.90625 -5.046875q3.125 -1.84375 7.015625 -1.84375q3.953125 0 7.015625 1.796875q3.0625 1.78125 4.8125 5.015625q1.765625 3.21875 1.765625 7.421875q0 0.265625 -0.03125 0.5625q-0.015625 0.296875 -0.015625 0.609375l-24.375 0l0 -2.8125l22.34375 0l-1.484375 1.109375q0 -3.03125 -1.3125 -5.40625q-1.296875 -2.375 -3.546875 -3.703125q-2.234375 -1.34375 -5.171875 -1.34375q-2.875 0 -5.171875 1.34375q-2.296875 1.328125 -3.578125 3.734375q-1.28125 2.390625 -1.28125 5.484375l0 0.59375q0 3.1875 1.40625 5.625q1.421875 2.421875 3.953125 3.78125q2.546875 1.359375 5.796875 1.359375q2.5625 0 4.765625 -0.90625q2.21875 -0.90625 3.8125 -2.765625l2.140625 2.453125q-1.875 2.234375 -4.671875 3.40625q-2.796875 1.171875 -6.15625 1.171875zm20.475708 -11.46875l-0.75 -26.125l4.484375 0l-0.796875 26.125l-2.9375 0zm1.5 11.46875q-1.171875 0 -2.0 -0.828125q-0.828125 -0.828125 -0.828125 -1.9375q0 -1.171875 0.828125 -1.9375q0.828125 -0.78125 2.0 -0.78125q1.21875 0 1.984375 0.78125q0.78125 0.765625 0.78125 1.9375q0 1.109375 -0.78125 1.9375q-0.765625 0.828125 -1.984375 0.828125z" fill-rule="nonzero"/></g></svg>